M48
INCH
T1C0.0098
T2C0.0118
T3C0.0197
T4C0.0236
T5C0.0315
T6C0.1260
%
G90
G05
T1
X4.062Y-2.4498
X4.062Y-2.5059
X4.1152Y-2.5059
X4.188Y-2.3642
X4.2119Y-2.3504
X4.2845Y-2.3574
X4.3297Y-2.688
X4.3799Y-2.2402
X4.3799Y-2.3839
X4.4094Y-2.2402
X4.5195Y-2.1685
X4.5846Y-2.4587
X4.5882Y-2.2651
X4.6157Y-2.2647
X4.6457Y-2.3593
X4.6467Y-2.2643
X4.6555Y-2.4072
X4.6742Y-2.2657
X4.789Y-2.3909
X4.824Y-2.7746
X4.8444Y-2.7933
X4.8612Y-2.5552
X4.8695Y-2.8046
X4.87Y-2.8794
X4.9002Y-2.7989
X4.9026Y-2.5266
X4.9201Y-2.7755
X5.0728Y-3.5758
X5.0991Y-3.5674
X5.1102Y-2.3835
X5.1171Y-2.8044
X5.1227Y-2.8599
X5.1368Y-2.9183
X5.1378Y-2.3839
X5.1381Y-2.9459
X5.1614Y-2.998
X5.19Y-2.998
X5.191Y-2.919
X5.1939Y-2.8599
X5.2185Y-2.998
X5.2204Y-2.8674
X5.2205Y-2.935
X5.2333Y-3.5443
X5.2343Y-2.965
X5.2388Y-2.82
X5.2539Y-3.2677
X5.2579Y-3.6339
X5.2579Y-3.7008
X5.2626Y-2.8748
X5.2628Y-2.8469
X5.2628Y-2.8061
X5.263Y-2.9035
X5.2766Y-3.2856
X5.2855Y-3.6436
X5.3002Y-3.3661
X5.3012Y-3.3031
X5.3031Y-3.7116
X5.3228Y-3.6449
X5.3504Y-3.6339
X5.3504Y-3.7008
X5.3514Y-2.7785
X5.3514Y-2.8061
X5.3516Y-2.9311
X5.3516Y-2.8465
X5.3516Y-2.8744
X5.3518Y-2.9035
X5.352Y-2.9587
X5.3594Y-2.6978
X5.3733Y-2.674
X5.3773Y-2.7673
X5.3825Y-3.3692
X5.4048Y-2.7674
X5.4048Y-2.97
X5.4291Y-2.9559
X5.4291Y-3.3366
T2
X3.8976Y-1.9685
X3.8976Y-2.0472
X3.8976Y-2.126
X3.8976Y-2.2047
X3.8976Y-2.3425
X3.8976Y-2.3819
X3.8976Y-2.4213
X3.8976Y-2.5591
X3.8976Y-2.6378
X3.8976Y-2.6772
X3.8976Y-2.8051
X3.8976Y-2.8445
X3.8976Y-2.8839
X3.8976Y-3.0315
X3.8976Y-3.0709
X3.8976Y-3.1496
X3.8976Y-3.2283
X3.8976Y-3.3071
X3.8976Y-3.3858
X3.8976Y-3.4646
X3.8976Y-3.5433
X3.8976Y-3.622
X3.8976Y-3.7008
X3.8976Y-3.7795
X3.937Y-2.0079
X3.937Y-2.0866
X3.937Y-2.5984
X3.937Y-3.1102
X3.937Y-3.189
X3.937Y-3.2677
X3.937Y-3.3465
X3.937Y-3.4252
X3.937Y-3.5039
X3.937Y-3.5827
X3.937Y-3.6614
X3.937Y-3.7402
X3.9764Y-2.0472
X3.9764Y-2.126
X3.9764Y-3.2283
X3.9764Y-3.3858
X3.9764Y-3.5433
X3.9764Y-3.7008
X4.0157Y-2.7165
X4.0157Y-2.7953
X4.0157Y-2.8346
X4.0157Y-2.9134
X4.0157Y-3.1102
X4.0157Y-3.189
X4.0157Y-3.2677
X4.0157Y-3.3465
X4.0157Y-3.4252
X4.0157Y-3.5039
X4.0157Y-3.5827
X4.0157Y-3.6614
X4.0157Y-3.7402
X4.0551Y-2.7559
X4.0551Y-2.874
X4.0551Y-3.1496
X4.0551Y-3.3071
X4.0551Y-3.4646
X4.0551Y-3.622
X4.0945Y-1.7323
X4.0945Y-3.0315
X4.0945Y-3.1102
X4.0945Y-3.189
X4.0945Y-3.2677
X4.0945Y-3.3465
X4.0945Y-3.4252
X4.0945Y-3.5039
X4.0945Y-3.5827
X4.0945Y-3.6614
X4.0945Y-3.7402
X4.1339Y-1.7717
X4.1339Y-2.8346
X4.1339Y-2.9134
X4.1339Y-2.9921
X4.1339Y-3.0709
X4.1339Y-3.2283
X4.1339Y-3.3858
X4.1339Y-3.5433
X4.1339Y-3.622
X4.1339Y-3.7008
X4.1339Y-3.7795
X4.1339Y-4.0157
X4.1634Y-2.2766
X4.1698Y-2.2013
X4.1732Y-1.7323
X4.1732Y-2.7087
X4.1732Y-2.7953
X4.1732Y-2.874
X4.1732Y-2.9528
X4.1732Y-3.1102
X4.1732Y-3.189
X4.1732Y-3.2677
X4.1732Y-3.3465
X4.1732Y-3.4252
X4.1732Y-3.5039
X4.1732Y-3.5827
X4.1732Y-3.6614
X4.1732Y-3.7402
X4.1732Y-3.8189
X4.1732Y-3.8976
X4.1732Y-3.9764
X4.1988Y-2.2244
X4.2018Y-2.0394
X4.2106Y-2.2598
X4.2126Y-1.7717
X4.2126Y-1.8504
X4.2126Y-1.8839
X4.2126Y-2.8346
X4.2126Y-2.9134
X4.2126Y-2.9921
X4.2126Y-3.0709
X4.2126Y-3.1496
X4.2126Y-3.2283
X4.2126Y-3.3071
X4.2126Y-3.3858
X4.2126Y-3.4646
X4.2126Y-3.7795
X4.2126Y-3.8583
X4.2126Y-3.937
X4.2126Y-4.0157
X4.2323Y-2.063
X4.2376Y-2.2796
X4.252Y-1.7323
X4.252Y-3.4252
X4.2913Y-1.7717
X4.2913Y-2.8091
X4.2913Y-2.874
X4.2913Y-3.4646
X4.3307Y-1.7323
X4.3346Y-2.1732
X4.3581Y-2.5721
X4.3584Y-2.4936
X4.3681Y-2.1732
X4.3701Y-4.0157
X4.4087Y-2.0197
X4.4087Y-2.0819
X4.4351Y-2.4936
X4.4354Y-2.572
X4.4417Y-2.0197
X4.4417Y-2.0819
X4.4488Y-4.0157
X4.4783Y-1.7717
X4.4872Y-2.1713
X4.4882Y-2.7953
X4.4882Y-2.874
X4.4882Y-2.9528
X4.4882Y-3.0315
X4.4882Y-3.1102
X4.4882Y-3.189
X4.4882Y-3.2677
X4.5177Y-1.7323
X4.5276Y-2.7559
X4.5276Y-2.8346
X4.5276Y-2.9134
X4.5276Y-2.9921
X4.5276Y-3.0709
X4.5276Y-3.1496
X4.5276Y-3.2283
X4.5276Y-3.3071
X4.5276Y-4.0157
X4.5571Y-1.7717
X4.5669Y-2.7953
X4.5669Y-2.874
X4.5669Y-2.9528
X4.5669Y-3.0315
X4.5669Y-3.1102
X4.5669Y-3.189
X4.5669Y-3.2677
X4.5669Y-3.3465
X4.5669Y-3.9764
X4.5984Y-2.0896
X4.6063Y-2.9134
X4.6063Y-2.9921
X4.6063Y-3.0709
X4.6063Y-3.1496
X4.6063Y-3.2283
X4.6063Y-3.3071
X4.6063Y-3.3858
X4.6063Y-3.4646
X4.6063Y-3.5433
X4.6063Y-3.622
X4.6063Y-3.7008
X4.6063Y-3.7795
X4.6063Y-3.8583
X4.6063Y-3.937
X4.6063Y-4.0157
X4.6457Y-2.0079
X4.6457Y-3.0315
X4.6457Y-3.189
X4.6457Y-3.2677
X4.6457Y-3.3465
X4.6457Y-3.4252
X4.6457Y-3.5039
X4.6457Y-3.5827
X4.6457Y-3.6614
X4.6457Y-3.7402
X4.6457Y-3.8189
X4.6457Y-3.8976
X4.6457Y-3.9764
X4.6732Y-2.1083
X4.6732Y-2.1417
X4.6824Y-2.72
X4.685Y-1.7323
X4.685Y-3.2283
X4.685Y-3.3071
X4.685Y-3.3858
X4.685Y-3.4646
X4.685Y-3.5433
X4.685Y-3.622
X4.685Y-3.7008
X4.685Y-3.7795
X4.685Y-3.8583
X4.685Y-3.937
X4.685Y-4.0157
X4.7244Y-1.7717
X4.7244Y-3.4252
X4.7244Y-3.5039
X4.7244Y-3.5827
X4.7244Y-3.6614
X4.7244Y-3.7402
X4.7244Y-3.8189
X4.7244Y-3.8976
X4.7244Y-3.9764
X4.7441Y-2.1693
X4.7591Y-3.1421
X4.7615Y-1.9085
X4.7638Y-1.7323
X4.7638Y-2.0079
X4.7638Y-3.4646
X4.7638Y-3.5433
X4.7638Y-3.622
X4.7638Y-3.7008
X4.7638Y-3.7795
X4.7638Y-3.8583
X4.7638Y-3.937
X4.7638Y-4.0157
X4.7776Y-2.1693
X4.7923Y-1.9215
X4.7953Y-3.4301
X4.7957Y-3.1654
X4.8031Y-1.7717
X4.8031Y-2.0472
X4.8031Y-3.7402
X4.8031Y-3.8189
X4.8031Y-3.8976
X4.8031Y-3.9764
X4.8394Y-2.8791
X4.8425Y-1.7323
X4.8425Y-2.0079
X4.8425Y-2.645
X4.8425Y-3.7008
X4.8425Y-3.7795
X4.8425Y-3.8583
X4.8425Y-3.937
X4.8425Y-4.0157
X4.844Y-2.6059
X4.8676Y-2.456
X4.872Y-2.5267
X4.876Y-3.186
X4.876Y-3.2244
X4.876Y-3.2736
X4.876Y-3.3236
X4.877Y-3.4596
X4.8799Y-2.9114
X4.8819Y-3.7402
X4.8819Y-3.8189
X4.8819Y-3.8976
X4.8819Y-3.9764
X4.8907Y-2.1919
X4.8927Y-2.3989
X4.9004Y-2.4657
X4.9125Y-2.9261
X4.9163Y-2.4951
X4.9213Y-2.0472
X4.9213Y-2.1122
X4.9213Y-3.7008
X4.9213Y-3.7795
X4.9213Y-3.8583
X4.9213Y-3.937
X4.9213Y-4.0157
X4.9232Y-2.1811
X4.9262Y-3.186
X4.9291Y-2.3566
X4.9301Y-2.6457
X4.9538Y-2.622
X4.9557Y-2.1919
X4.9577Y-3.0276
X4.9606Y-3.7402
X4.9606Y-3.8189
X4.9606Y-3.8976
X4.9606Y-3.9764
X4.9823Y-3.185
X4.986Y-2.3333
X4.9862Y-2.4931
X4.9862Y-2.5266
X4.9872Y-2.0472
X4.9872Y-2.1122
X4.9872Y-2.1806
X4.9885Y-3.0146
X4.9902Y-1.7717
X5.0Y-3.7008
X5.0Y-3.7795
X5.0Y-3.8583
X5.0Y-3.937
X5.0Y-4.0157
X5.0168Y-2.3465
X5.0187Y-2.1919
X5.0217Y-3.0072
X5.0217Y-3.0407
X5.0295Y-1.7323
X5.0394Y-3.7402
X5.0394Y-3.9764
X5.0413Y-3.0689
X5.0472Y-2.9449
X5.06Y-2.4252
X5.0689Y-1.7717
X5.0919Y-2.4353
X5.0925Y-2.3228
X5.1004Y-3.0768
X5.1053Y-2.1122
X5.1053Y-2.1614
X5.1181Y-2.5984
X5.1258Y-2.5052
X5.126Y-2.5387
X5.1307Y-3.326
X5.1307Y-3.3917
X5.1575Y-1.9291
X5.1575Y-4.0157
X5.1624Y-2.253
X5.1778Y-2.2232
X5.1811Y-2.7913
X5.1906Y-3.326
X5.1906Y-3.3917
X5.1969Y-1.7323
X5.1969Y-3.9764
X5.2362Y-1.7717
X5.2362Y-4.0157
X5.253Y-2.4777
X5.2657Y-1.8907
X5.2756Y-1.7323
X5.2756Y-1.9291
X5.2756Y-3.9764
X5.311Y-2.2559
X5.315Y-1.7717
X5.315Y-4.0157
X5.3386Y-3.1319
X5.3386Y-3.1703
X5.3406Y-2.1093
X5.3543Y-1.7323
X5.3543Y-3.9764
X5.3839Y-3.2254
X5.3937Y-4.0157
X5.4121Y-3.3858
X5.4291Y-2.5128
X5.4327Y-2.4783
X5.4331Y-1.9094
X5.4331Y-2.2047
X5.4331Y-3.4646
X5.4331Y-3.5433
X5.4331Y-3.622
X5.4429Y-2.6476
X5.4446Y-3.3629
X5.4626Y-2.2933
X5.4636Y-2.251
X5.4724Y-1.8701
X5.4724Y-2.126
X5.4724Y-2.2047
X5.4724Y-2.3494
X5.4724Y-2.7165
X5.4724Y-3.4252
X5.4724Y-3.5039
X5.4724Y-3.5827
X5.4724Y-3.6614
X5.4724Y-3.7402
X5.498Y-2.9429
X5.502Y-1.7717
X5.5118Y-1.9094
X5.5118Y-2.0866
X5.5118Y-2.1654
X5.5118Y-2.3476
X5.5118Y-3.4646
X5.5118Y-3.5433
X5.5118Y-3.622
X5.5118Y-3.7008
X5.5118Y-3.937
X5.5118Y-4.0157
X5.5413Y-1.7323
X5.55Y-2.0172
X5.5512Y-1.8701
X5.5512Y-2.126
X5.5512Y-2.7165
X5.5512Y-3.5827
X5.5512Y-3.6614
X5.5512Y-3.7402
X5.5512Y-3.8976
X5.5512Y-3.9764
X5.5778Y-2.9193
X5.5807Y-1.7717
X5.5807Y-2.0305
X5.5837Y-2.3533
X5.5906Y-1.9094
X5.5906Y-2.0866
X5.5906Y-2.1654
X5.5906Y-3.622
X5.5906Y-3.937
X5.5906Y-4.0157
X5.6088Y-2.9319
X5.6132Y-2.5079
X5.624Y-2.3533
X5.6299Y-1.8701
X5.6299Y-2.126
X5.6299Y-2.7165
X5.6299Y-3.5827
X5.6299Y-3.9764
X5.6398Y-2.9193
X5.6693Y-3.5039
X5.6693Y-3.622
X5.6693Y-4.0157
X5.6708Y-2.9321
X5.7018Y-2.9193
X5.7028Y-2.7539
X5.7087Y-1.7323
X5.7087Y-2.5591
X5.7087Y-2.6378
X5.7087Y-2.7165
X5.7087Y-3.5827
X5.7087Y-3.9764
X5.7442Y-2.5235
X5.748Y-1.7717
X5.748Y-2.5984
X5.748Y-2.6772
X5.748Y-3.4252
X5.748Y-3.622
X5.748Y-4.0157
X5.7874Y-1.7323
X5.7874Y-1.811
X5.7874Y-3.5827
X5.7874Y-3.6614
X5.7874Y-3.9764
X5.8238Y-2.9193
X5.8268Y-1.7717
X5.8268Y-3.622
X5.8268Y-3.7008
X5.8268Y-3.7795
X5.8268Y-3.8583
X5.8268Y-3.937
X5.8268Y-4.0157
X5.8622Y-2.9193
X5.8661Y-1.7323
X5.8661Y-1.811
X5.8661Y-2.5591
X5.8661Y-2.6378
X5.8661Y-3.3858
X5.8661Y-3.4646
X5.8661Y-3.5827
X5.8661Y-3.6614
X5.8661Y-3.7402
X5.8661Y-3.8189
X5.8661Y-3.8976
X5.8661Y-3.9764
X5.9006Y-2.9193
X5.9055Y-1.7717
X5.9055Y-2.5197
X5.9055Y-2.5984
X5.9055Y-2.6772
X5.9055Y-3.4252
X5.9055Y-3.7795
X5.9055Y-4.0157
X5.935Y-2.9193
X5.9449Y-1.7323
X5.9449Y-2.5591
X5.9449Y-2.6378
X5.9449Y-3.4646
X5.9449Y-3.5827
X5.9793Y-2.8622
X5.9843Y-2.0866
X5.9843Y-2.126
X5.9843Y-3.4252
X5.9987Y-2.8349
X6.0236Y-3.4646
X6.0236Y-3.5827
X6.063Y-3.4252
X6.1024Y-2.0866
X6.1024Y-3.4646
X6.1024Y-3.5827
X6.1417Y-2.0472
X6.1417Y-2.126
X6.1417Y-2.2047
X6.1417Y-2.3327
X6.1417Y-2.4311
X6.1417Y-2.5591
X6.1417Y-2.6378
X6.1417Y-2.7165
X6.1417Y-2.7953
X6.1417Y-2.874
X6.1417Y-2.9528
X6.1417Y-3.189
X6.1417Y-3.2677
X6.1417Y-3.3465
X6.1417Y-3.4252
X6.1417Y-3.622
X6.1417Y-3.7008
X6.1417Y-3.7795
X6.1713Y-2.3622
X6.1713Y-2.4016
X6.1811Y-1.9291
X6.1811Y-2.0079
X6.1811Y-2.0866
X6.1811Y-2.1654
X6.1811Y-2.2047
X6.1811Y-2.5984
X6.1811Y-2.6772
X6.1811Y-2.7559
X6.1811Y-2.8346
X6.1811Y-2.9134
X6.1811Y-3.2283
X6.1811Y-3.3071
X6.1811Y-3.3858
X6.1811Y-3.4646
X6.1811Y-3.5827
X6.1811Y-3.6614
X6.1811Y-3.7402
X6.1811Y-3.8189
T3
X3.9212Y-1.874
X3.9213Y-3.8967
X3.9489Y-1.8072
X3.9489Y-1.9408
X3.9489Y-3.8298
X3.9489Y-3.9635
X4.0157Y-1.7795
X4.0157Y-1.9685
X4.0157Y-3.8022
X4.0157Y-3.9911
X4.0825Y-1.8072
X4.0825Y-1.9408
X4.0826Y-3.8298
X4.0826Y-3.9635
X4.1102Y-1.874
X4.1102Y-3.8967
X4.9262Y-3.2244
X4.9262Y-3.2736
X4.9262Y-3.3228
X5.9439Y-1.874
X5.9449Y-3.8967
X5.9716Y-1.8072
X5.9716Y-1.9408
X5.9726Y-3.8298
X5.9726Y-3.9635
X6.0384Y-1.7795
X6.0384Y-1.9685
X6.0394Y-3.8022
X6.0394Y-3.9911
X6.1052Y-1.8072
X6.1052Y-1.9408
X6.1062Y-3.8298
X6.1062Y-3.9635
X6.1329Y-1.874
X6.1339Y-3.8967
T6
X4.0157Y-1.874
X4.0157Y-3.8967
X6.0384Y-1.874
X6.0394Y-3.8967
T4
G00X5.1134Y-3.7803
M15
G01X5.1134Y-3.8236
M16
G05
G00X5.1134Y-3.9508
M15
G01X5.1134Y-3.9823
M16
G05
G00X5.4535Y-3.7803
M15
G01X5.4535Y-3.8236
M16
G05
G00X5.4535Y-3.9508
M15
G01X5.4535Y-3.9823
M16
G05
T5
G00X4.2923Y-3.9783
M15
G01X4.2923Y-3.9547
M16
G05
G00X4.301Y-3.6201
M15
G01X4.301Y-3.5728
M16
G05
G00X4.4455Y-3.4823
M15
G01X4.3982Y-3.4823
M16
G05
G00X4.4923Y-3.9075
M15
G01X4.4923Y-3.876
M16
G05
M30
