%TF.GenerationSoftware,KiCad,Pcbnew,9.0.0*%
%TF.CreationDate,2025-03-31T19:39:25-04:00*%
%TF.ProjectId,nano405,6e616e6f-3430-4352-9e6b-696361645f70,A*%
%TF.SameCoordinates,Original*%
%TF.FileFunction,Paste,Bot*%
%TF.FilePolarity,Positive*%
%FSLAX46Y46*%
G04 Gerber Fmt 4.6, Leading zero omitted, Abs format (unit mm)*
G04 Created by KiCad (PCBNEW 9.0.0) date 2025-03-31 19:39:25*
%MOMM*%
%LPD*%
G01*
G04 APERTURE LIST*
G04 Aperture macros list*
%AMRoundRect*
0 Rectangle with rounded corners*
0 $1 Rounding radius*
0 $2 $3 $4 $5 $6 $7 $8 $9 X,Y pos of 4 corners*
0 Add a 4 corners polygon primitive as box body*
4,1,4,$2,$3,$4,$5,$6,$7,$8,$9,$2,$3,0*
0 Add four circle primitives for the rounded corners*
1,1,$1+$1,$2,$3*
1,1,$1+$1,$4,$5*
1,1,$1+$1,$6,$7*
1,1,$1+$1,$8,$9*
0 Add four rect primitives between the rounded corners*
20,1,$1+$1,$2,$3,$4,$5,0*
20,1,$1+$1,$4,$5,$6,$7,0*
20,1,$1+$1,$6,$7,$8,$9,0*
20,1,$1+$1,$8,$9,$2,$3,0*%
G04 Aperture macros list end*
%ADD10RoundRect,0.200000X-0.275000X0.200000X-0.275000X-0.200000X0.275000X-0.200000X0.275000X0.200000X0*%
%ADD11RoundRect,0.140000X0.170000X-0.140000X0.170000X0.140000X-0.170000X0.140000X-0.170000X-0.140000X0*%
%ADD12RoundRect,0.250000X0.250000X0.475000X-0.250000X0.475000X-0.250000X-0.475000X0.250000X-0.475000X0*%
%ADD13RoundRect,0.250000X-0.475000X0.250000X-0.475000X-0.250000X0.475000X-0.250000X0.475000X0.250000X0*%
%ADD14RoundRect,0.200000X0.200000X0.275000X-0.200000X0.275000X-0.200000X-0.275000X0.200000X-0.275000X0*%
%ADD15RoundRect,0.250000X0.650000X-0.325000X0.650000X0.325000X-0.650000X0.325000X-0.650000X-0.325000X0*%
%ADD16RoundRect,0.200000X-0.200000X-0.275000X0.200000X-0.275000X0.200000X0.275000X-0.200000X0.275000X0*%
%ADD17RoundRect,0.250000X-0.650000X0.325000X-0.650000X-0.325000X0.650000X-0.325000X0.650000X0.325000X0*%
%ADD18RoundRect,0.250000X-0.250000X-0.475000X0.250000X-0.475000X0.250000X0.475000X-0.250000X0.475000X0*%
%ADD19RoundRect,0.140000X0.140000X0.170000X-0.140000X0.170000X-0.140000X-0.170000X0.140000X-0.170000X0*%
%ADD20R,0.800000X0.350000*%
%ADD21R,1.750000X2.500000*%
%ADD22R,0.762000X0.203200*%
%ADD23R,0.203200X0.762000*%
%ADD24R,3.606800X3.606800*%
G04 APERTURE END LIST*
D10*
%TO.C,R21*%
X117625000Y-56700000D03*
X117625000Y-58350000D03*
%TD*%
D11*
%TO.C,C23*%
X115600000Y-63410000D03*
X115600000Y-62450000D03*
%TD*%
D12*
%TO.C,C20*%
X105975000Y-62200000D03*
X104075000Y-62200000D03*
%TD*%
D11*
%TO.C,C33*%
X108040000Y-61010000D03*
X108040000Y-60050000D03*
%TD*%
D10*
%TO.C,R17*%
X112000000Y-57900000D03*
X112000000Y-59550000D03*
%TD*%
D13*
%TO.C,C25*%
X117750000Y-69600000D03*
X117750000Y-71500000D03*
%TD*%
%TO.C,C49*%
X109225000Y-51175000D03*
X109225000Y-53075000D03*
%TD*%
D12*
%TO.C,C30*%
X108050000Y-67550000D03*
X106150000Y-67550000D03*
%TD*%
D13*
%TO.C,C31*%
X104400000Y-67300000D03*
X104400000Y-69200000D03*
%TD*%
D10*
%TO.C,R19*%
X113500000Y-57900000D03*
X113500000Y-59550000D03*
%TD*%
D14*
%TO.C,R23*%
X108600000Y-58800000D03*
X106950000Y-58800000D03*
%TD*%
D15*
%TO.C,C24*%
X117750000Y-67600000D03*
X117750000Y-64650000D03*
%TD*%
D10*
%TO.C,R20*%
X110500000Y-57900000D03*
X110500000Y-59550000D03*
%TD*%
D12*
%TO.C,C27*%
X115775700Y-68509999D03*
X113875700Y-68509999D03*
%TD*%
D13*
%TO.C,C50*%
X115575000Y-51175000D03*
X115575000Y-53075000D03*
%TD*%
D16*
%TO.C,R18*%
X115700000Y-61200000D03*
X117350000Y-61200000D03*
%TD*%
D17*
%TO.C,C22*%
X120175000Y-64150000D03*
X120175000Y-67100000D03*
%TD*%
D18*
%TO.C,C32*%
X106900000Y-69659999D03*
X108800000Y-69659999D03*
%TD*%
D19*
%TO.C,C21*%
X109900000Y-60659999D03*
X108940000Y-60659999D03*
%TD*%
D20*
%TO.C,U5*%
X113900000Y-51125000D03*
X113900000Y-51775000D03*
X113900000Y-52425000D03*
X113900000Y-53075000D03*
X110900000Y-53075000D03*
X110900000Y-52425000D03*
X110900000Y-51775000D03*
X110900000Y-51125000D03*
D21*
X112400000Y-52100000D03*
%TD*%
D10*
%TO.C,R22*%
X115425000Y-56700000D03*
X115425000Y-58350000D03*
%TD*%
D13*
%TO.C,C26*%
X120175000Y-69150000D03*
X120175000Y-71050000D03*
%TD*%
D12*
%TO.C,C28*%
X105975700Y-65109999D03*
X104075700Y-65109999D03*
%TD*%
D13*
%TO.C,C29*%
X110625000Y-69450000D03*
X110625000Y-71350000D03*
%TD*%
D19*
%TO.C,C19*%
X106200000Y-63675000D03*
X105240000Y-63675000D03*
%TD*%
D22*
%TO.C,U2*%
X114101400Y-62510000D03*
X114101400Y-62909999D03*
X114101400Y-63309998D03*
X114101400Y-63710000D03*
X114101400Y-64109999D03*
X114101400Y-64509999D03*
X114101400Y-64909998D03*
X114101400Y-65310000D03*
X114101400Y-65709999D03*
X114101400Y-66109998D03*
D23*
X113475699Y-66735699D03*
X113075700Y-66735699D03*
X112675701Y-66735699D03*
X112275699Y-66735699D03*
X111875700Y-66735699D03*
X111475700Y-66735699D03*
X111075701Y-66735699D03*
X110675699Y-66735699D03*
X110275700Y-66735699D03*
X109875701Y-66735699D03*
D22*
X109250000Y-66109998D03*
X109250000Y-65709999D03*
X109250000Y-65310000D03*
X109250000Y-64909998D03*
X109250000Y-64509999D03*
X109250000Y-64109999D03*
X109250000Y-63710000D03*
X109250000Y-63309998D03*
X109250000Y-62909999D03*
X109250000Y-62510000D03*
D23*
X109875701Y-61884299D03*
X110275700Y-61884299D03*
X110675699Y-61884299D03*
X111075701Y-61884299D03*
X111475700Y-61884299D03*
X111875700Y-61884299D03*
X112275699Y-61884299D03*
X112675701Y-61884299D03*
X113075700Y-61884299D03*
X113475699Y-61884299D03*
D24*
X111675700Y-64309999D03*
%TD*%
M02*
