%TF.GenerationSoftware,KiCad,Pcbnew,9.0.0*%
%TF.CreationDate,2025-03-31T19:39:25-04:00*%
%TF.ProjectId,nano405,6e616e6f-3430-4352-9e6b-696361645f70,A*%
%TF.SameCoordinates,Original*%
%TF.FileFunction,Copper,L3,Inr*%
%TF.FilePolarity,Positive*%
%FSLAX46Y46*%
G04 Gerber Fmt 4.6, Leading zero omitted, Abs format (unit mm)*
G04 Created by KiCad (PCBNEW 9.0.0) date 2025-03-31 19:39:25*
%MOMM*%
%LPD*%
G01*
G04 APERTURE LIST*
%TA.AperFunction,ComponentPad*%
%ADD10O,1.300000X0.800000*%
%TD*%
%TA.AperFunction,ComponentPad*%
%ADD11O,1.308000X2.616000*%
%TD*%
%TA.AperFunction,ComponentPad*%
%ADD12C,0.800000*%
%TD*%
%TA.AperFunction,ComponentPad*%
%ADD13C,6.400000*%
%TD*%
%TA.AperFunction,ComponentPad*%
%ADD14O,1.000000X2.100000*%
%TD*%
%TA.AperFunction,ComponentPad*%
%ADD15O,1.000000X1.800000*%
%TD*%
%TA.AperFunction,ViaPad*%
%ADD16C,0.550000*%
%TD*%
%TA.AperFunction,ViaPad*%
%ADD17C,0.700000*%
%TD*%
G04 APERTURE END LIST*
D10*
%TO.N,GND*%
%TO.C,J5*%
X125125000Y-81900000D03*
%TD*%
D11*
%TO.N,GND*%
%TO.C,J3*%
X109025000Y-100750000D03*
%TD*%
D12*
%TO.N,GND*%
%TO.C,H3*%
X151000000Y-98975000D03*
X151702944Y-97277944D03*
X151702944Y-100672056D03*
X153400000Y-96575000D03*
D13*
X153400000Y-98975000D03*
D12*
X153400000Y-101375000D03*
X155097056Y-97277944D03*
X155097056Y-100672056D03*
X155800000Y-98975000D03*
%TD*%
D14*
%TO.N,GND*%
%TO.C,J4*%
X129880000Y-96570000D03*
D15*
X129880000Y-100750000D03*
D14*
X138520000Y-96570000D03*
D15*
X138520000Y-100750000D03*
%TD*%
D12*
%TO.N,GND*%
%TO.C,H4*%
X99600000Y-98975000D03*
X100302944Y-97277944D03*
X100302944Y-100672056D03*
X102000000Y-96575000D03*
D13*
X102000000Y-98975000D03*
D12*
X102000000Y-101375000D03*
X103697056Y-97277944D03*
X103697056Y-100672056D03*
X104400000Y-98975000D03*
%TD*%
%TO.N,GND*%
%TO.C,H2*%
X150975000Y-47600000D03*
X151677944Y-45902944D03*
X151677944Y-49297056D03*
X153375000Y-45200000D03*
D13*
X153375000Y-47600000D03*
D12*
X153375000Y-50000000D03*
X155072056Y-45902944D03*
X155072056Y-49297056D03*
X155775000Y-47600000D03*
%TD*%
%TO.N,GND*%
%TO.C,H1*%
X99599175Y-47599175D03*
X100302119Y-45902119D03*
X100302119Y-49296231D03*
X101999175Y-45199175D03*
D13*
X101999175Y-47599175D03*
D12*
X101999175Y-49999175D03*
X103696231Y-45902119D03*
X103696231Y-49296231D03*
X104399175Y-47599175D03*
%TD*%
D16*
%TO.N,GND*%
X133065692Y-71627558D03*
D17*
X118000000Y-87000000D03*
D16*
X121639363Y-60727722D03*
D17*
X101000000Y-52000000D03*
X149000000Y-67000000D03*
X149000000Y-65000000D03*
X145000000Y-67000000D03*
X145000000Y-65000000D03*
D16*
X132925000Y-90025000D03*
X118000000Y-59925000D03*
D17*
X124875000Y-63375000D03*
X131600000Y-70900000D03*
X105000000Y-86000000D03*
X104000000Y-44000000D03*
X145000000Y-44000000D03*
X116000000Y-101000000D03*
X150000000Y-87000000D03*
X121000000Y-44000000D03*
X112660000Y-65330000D03*
X99000000Y-96000000D03*
X143000000Y-91000000D03*
X141000000Y-91000000D03*
X117000000Y-102000000D03*
X141000000Y-93000000D03*
X103000000Y-88000000D03*
X149000000Y-95000000D03*
X138292942Y-85418001D03*
X147000000Y-101000000D03*
X117000000Y-98000000D03*
X99000000Y-60500000D03*
X148000000Y-98000000D03*
X118000000Y-101000000D03*
X107500000Y-52400000D03*
X119000000Y-90000000D03*
X125199936Y-59857493D03*
X102000000Y-74000000D03*
X157000000Y-88000000D03*
X109000000Y-71350000D03*
X157000000Y-70000000D03*
X157000000Y-74000000D03*
X157000000Y-51000000D03*
X123636849Y-62382351D03*
X106000000Y-68800000D03*
X99000000Y-73250000D03*
X154000000Y-87000000D03*
X99000000Y-68000000D03*
X156000000Y-65000000D03*
X118700000Y-53549997D03*
X116000000Y-83000000D03*
X124000000Y-101000000D03*
X137000000Y-102000000D03*
X118000000Y-95000000D03*
X155000000Y-91000000D03*
X157000000Y-91000000D03*
X146000000Y-102000000D03*
X148000000Y-45000000D03*
X138775000Y-57175000D03*
X119000000Y-102000000D03*
X123850000Y-83150000D03*
X100000000Y-89000000D03*
X141000000Y-95000000D03*
X107000000Y-88000000D03*
X134900000Y-57300000D03*
X115000000Y-102000000D03*
X102000000Y-79000000D03*
X144000000Y-92000000D03*
X117000000Y-78000000D03*
X138000000Y-90000000D03*
X155000000Y-53000000D03*
X105000000Y-78000000D03*
X104000000Y-85000000D03*
X108000000Y-87000000D03*
X127750000Y-44000000D03*
X117000000Y-74000000D03*
D16*
X133550000Y-92300000D03*
D17*
X133000000Y-45000000D03*
X129350000Y-59000000D03*
X107000000Y-80000000D03*
X144000000Y-102000000D03*
X157000000Y-86000000D03*
X120000000Y-45000000D03*
X99000000Y-71250000D03*
X119000000Y-88000000D03*
X156000000Y-52000000D03*
X106000000Y-99000000D03*
X99000000Y-65000000D03*
X118000000Y-91000000D03*
X116000000Y-71000000D03*
X157000000Y-56000000D03*
X135600000Y-79550000D03*
X99000000Y-77000000D03*
X100000000Y-81000000D03*
X104000000Y-93000000D03*
D16*
X133670000Y-73020000D03*
D17*
X103000000Y-92000000D03*
X118000000Y-89000000D03*
X156000000Y-67000000D03*
X150750000Y-74150000D03*
X156000000Y-56000000D03*
X140000000Y-48500000D03*
X131840000Y-86150000D03*
X139000000Y-56000000D03*
X122000000Y-101000000D03*
X156000000Y-96000000D03*
X105000000Y-72000000D03*
X123750008Y-64179001D03*
X126000000Y-97000000D03*
X157000000Y-93000000D03*
X99000000Y-92000000D03*
X111980000Y-51300000D03*
X140000000Y-100000000D03*
X128000000Y-101000000D03*
X121000000Y-92000000D03*
X107000000Y-78000000D03*
X134000000Y-101000000D03*
X143000000Y-101000000D03*
D16*
X137900000Y-75080000D03*
D17*
X106650000Y-56500000D03*
X108000000Y-44000000D03*
X151000000Y-44000000D03*
X126000000Y-99000000D03*
X118000000Y-99000000D03*
X155000000Y-88000000D03*
X130320000Y-84480000D03*
X149000000Y-46000000D03*
X102000000Y-72000000D03*
X122000000Y-45000000D03*
X118932906Y-69088662D03*
X157000000Y-97000000D03*
X99000000Y-94000000D03*
X149000000Y-44000000D03*
X119000000Y-82000000D03*
X145000000Y-91000000D03*
X118000000Y-51000000D03*
X117000000Y-100000000D03*
X115000000Y-84000000D03*
X125050000Y-55400000D03*
X122000000Y-52000000D03*
X125000000Y-96000000D03*
X117000000Y-82000000D03*
X142000000Y-55000000D03*
X151000000Y-65000000D03*
X106000000Y-71000000D03*
X126644354Y-59265161D03*
X114000000Y-75000000D03*
X115000000Y-82000000D03*
X119000000Y-92000000D03*
X116000000Y-81000000D03*
X119000000Y-84000000D03*
X141000000Y-69000000D03*
X131840000Y-84480000D03*
X114750000Y-44000000D03*
X140000000Y-90000000D03*
X102000000Y-83000000D03*
X120000000Y-95000000D03*
X105000000Y-102000000D03*
X117000000Y-80000000D03*
X153000000Y-91000000D03*
X149000000Y-97000000D03*
X156000000Y-92000000D03*
X105000000Y-94000000D03*
X140970076Y-51237033D03*
D16*
X106981218Y-59700000D03*
D17*
X131516271Y-56470407D03*
X132000000Y-101000000D03*
X121000000Y-102000000D03*
X124000000Y-99000000D03*
X130200367Y-64481729D03*
X106000000Y-93000000D03*
X101000000Y-86000000D03*
X150000000Y-102000000D03*
D16*
X136130021Y-68525000D03*
D17*
X121000000Y-96000000D03*
X156750000Y-61000000D03*
X156000000Y-61750000D03*
X147000000Y-44000000D03*
X125000000Y-100000000D03*
X115000000Y-80000000D03*
X149000000Y-91000000D03*
X126000000Y-101000000D03*
X140000000Y-92000000D03*
X141000000Y-101000000D03*
X129675000Y-54900000D03*
X152000000Y-53000000D03*
X134000000Y-49000000D03*
X125000000Y-53650000D03*
X107000000Y-86000000D03*
X141000000Y-54000000D03*
X105000000Y-92000000D03*
X103000000Y-73000000D03*
X156000000Y-87000000D03*
X118000000Y-77000000D03*
D16*
X135900000Y-94000000D03*
D17*
X107000000Y-74000000D03*
X157000000Y-84000000D03*
X126750000Y-45000000D03*
X106000000Y-75000000D03*
X127000000Y-94000000D03*
X149000000Y-101000000D03*
X130000000Y-66000000D03*
X139000000Y-89000000D03*
X106000000Y-83000000D03*
X102000000Y-71000000D03*
X150000000Y-68000000D03*
X120000000Y-97000000D03*
X123000000Y-94000000D03*
X117000000Y-94000000D03*
X150000000Y-96000000D03*
X149000000Y-86000000D03*
X157000000Y-53000000D03*
X122000000Y-95000000D03*
X119000000Y-86000000D03*
D16*
X109975000Y-68275000D03*
X103175000Y-63650000D03*
D17*
X156000000Y-69000000D03*
X107000000Y-82000000D03*
X102000000Y-93000000D03*
X120880000Y-79810000D03*
X145000000Y-69000000D03*
X121000000Y-98000000D03*
X148000000Y-102000000D03*
X140000000Y-102000000D03*
X117000000Y-96000000D03*
X126550000Y-80900000D03*
X136000000Y-101000000D03*
X109000000Y-88000000D03*
X100000000Y-93000000D03*
X149000000Y-88000000D03*
X156000000Y-71000000D03*
X157000000Y-68000000D03*
X139000000Y-54000000D03*
X126650000Y-63324997D03*
X137900000Y-63825000D03*
X135650000Y-53575000D03*
X100000000Y-66000000D03*
X115000000Y-72000000D03*
X105000000Y-90000000D03*
X122000000Y-97000000D03*
X133000000Y-102000000D03*
X104000000Y-87000000D03*
X101000000Y-54000000D03*
X143000000Y-54000000D03*
X121000000Y-51000000D03*
X100000000Y-53000000D03*
X157000000Y-55000000D03*
X139000000Y-69000000D03*
X149000000Y-93000000D03*
X117000000Y-84000000D03*
X120000000Y-99000000D03*
X129550000Y-78150000D03*
X105000000Y-76000000D03*
X114000000Y-83000000D03*
X103000000Y-70000000D03*
X123000000Y-102000000D03*
X115000000Y-76000000D03*
X141825000Y-59775000D03*
X139000000Y-91000000D03*
X157000000Y-49000000D03*
X110099997Y-55200000D03*
X148000000Y-96000000D03*
X109000000Y-45000000D03*
X125000000Y-52000000D03*
X116800000Y-53075000D03*
X121000000Y-94000000D03*
D16*
X135925000Y-70574997D03*
D17*
X131000000Y-49000000D03*
X99000000Y-72250000D03*
D16*
X108825650Y-59877350D03*
X129517050Y-90612757D03*
D17*
X116000000Y-85000000D03*
X129675000Y-53650000D03*
X106000000Y-44000000D03*
X139000000Y-87000000D03*
X124000000Y-95000000D03*
X150000000Y-64000000D03*
X114000000Y-77000000D03*
X120000000Y-93000000D03*
X138000000Y-88000000D03*
D16*
X124465342Y-71091332D03*
D17*
X152000000Y-87000000D03*
X157000000Y-66000000D03*
X99000000Y-52000000D03*
X142000000Y-102000000D03*
X104000000Y-91000000D03*
X115000000Y-78000000D03*
D16*
X118026021Y-57512179D03*
D17*
X99000000Y-67000000D03*
X146000000Y-87000000D03*
X115750000Y-45000000D03*
X140000000Y-55000000D03*
X107000000Y-96000000D03*
X99000000Y-80000000D03*
X151000000Y-91000000D03*
X142000000Y-92000000D03*
X104000000Y-83000000D03*
X99000000Y-61500000D03*
X99000000Y-82000000D03*
X102000000Y-95000000D03*
X145000000Y-101000000D03*
X143000000Y-69000000D03*
X142000000Y-100000000D03*
X106000000Y-81000000D03*
X119000000Y-44000000D03*
X100000000Y-95000000D03*
X127000000Y-98000000D03*
X131000000Y-102000000D03*
X106000000Y-85000000D03*
X127000000Y-96000000D03*
X136000000Y-44000000D03*
X106000000Y-87000000D03*
X137467997Y-86000000D03*
X127000000Y-102000000D03*
X147000000Y-46000000D03*
X102000000Y-85000000D03*
X119000000Y-96000000D03*
X117000000Y-88000000D03*
X106000000Y-97000000D03*
X114000000Y-79000000D03*
X107000000Y-100000000D03*
X112820000Y-52880000D03*
X107000000Y-76000000D03*
X102000000Y-89000000D03*
X141750000Y-45000000D03*
X99000000Y-78000000D03*
X111000000Y-102000000D03*
X107000000Y-102000000D03*
X114000000Y-81000000D03*
X153000000Y-88000000D03*
X104000000Y-77000000D03*
X100000000Y-91000000D03*
X140750000Y-44000000D03*
X124000000Y-97000000D03*
X151000000Y-88000000D03*
D16*
X135900000Y-92300000D03*
D17*
X152366316Y-72006377D03*
X148000000Y-92000000D03*
X142000000Y-48500000D03*
X102000000Y-81000000D03*
X132000000Y-44000000D03*
X100000000Y-87000000D03*
X99000000Y-90000000D03*
X156000000Y-59250000D03*
X125125000Y-80925000D03*
X113000000Y-102000000D03*
X115000000Y-70000000D03*
D16*
X132598806Y-72832350D03*
D17*
X135000000Y-102000000D03*
X147000000Y-93000000D03*
X157000000Y-82000000D03*
X121000000Y-88000000D03*
X143000000Y-47500000D03*
X142000000Y-53000000D03*
X99000000Y-54000000D03*
X99000000Y-59500000D03*
X114000000Y-73000000D03*
X157000000Y-95000000D03*
X148000000Y-94000000D03*
X119000000Y-98000000D03*
D16*
X135929846Y-74449984D03*
D17*
X107636284Y-57901515D03*
X139750000Y-45000000D03*
X105000000Y-74000000D03*
X116000000Y-79000000D03*
X121000000Y-90000000D03*
X102000000Y-69000000D03*
X130320000Y-86150000D03*
X110702149Y-63337851D03*
X123850000Y-80925000D03*
X123000000Y-44000000D03*
X138000000Y-92000000D03*
X100000000Y-83000000D03*
X116000000Y-75000000D03*
X109000000Y-73000000D03*
X105000000Y-82000000D03*
X136750000Y-81925000D03*
D16*
X134700000Y-94275000D03*
D17*
X126675002Y-55387769D03*
X106000000Y-95000000D03*
X107000000Y-45000000D03*
X121000000Y-100000000D03*
X139000000Y-95000000D03*
X123850000Y-84420000D03*
X123000000Y-96000000D03*
X125000000Y-98000000D03*
X120000000Y-91000000D03*
X149000000Y-99000000D03*
X100000000Y-79000000D03*
X140000000Y-53000000D03*
X156000000Y-83000000D03*
X142462498Y-74469915D03*
X146000000Y-45000000D03*
X140000000Y-94000000D03*
X111980000Y-52880000D03*
X142575000Y-63700000D03*
X134000000Y-44000000D03*
X120000000Y-87000000D03*
X100000000Y-51000000D03*
X157000000Y-72000000D03*
X147000000Y-91000000D03*
X123850000Y-81900000D03*
X100000000Y-85000000D03*
X156000000Y-94000000D03*
X123000000Y-51000000D03*
X104000000Y-89000000D03*
X121810000Y-80400000D03*
X120000000Y-101000000D03*
X119000000Y-100000000D03*
X128000000Y-95000000D03*
X104000000Y-79000000D03*
X119000000Y-94000000D03*
X120000000Y-89000000D03*
X104000000Y-81000000D03*
X112820000Y-51300000D03*
X125000000Y-102000000D03*
X118000000Y-83000000D03*
X106000000Y-91000000D03*
D16*
X114794067Y-55080933D03*
D17*
X107000000Y-84000000D03*
X148900000Y-74150000D03*
D16*
X129975000Y-71232350D03*
D17*
X127000000Y-100000000D03*
X138000000Y-48500000D03*
X99000000Y-50000000D03*
X156000000Y-75000000D03*
X105000000Y-45000000D03*
X99000000Y-56000000D03*
X99000000Y-88000000D03*
X146000000Y-92000000D03*
D16*
X133550000Y-94000000D03*
D17*
X125826042Y-66598958D03*
X118000000Y-85000000D03*
X128750000Y-45000000D03*
X106000000Y-101000000D03*
X117000000Y-86000000D03*
X126708868Y-76571281D03*
X123000000Y-98000000D03*
X141000000Y-99000000D03*
D16*
X117239103Y-57523909D03*
D17*
X126675000Y-52000000D03*
X115000000Y-74000000D03*
X156000000Y-73000000D03*
X116000000Y-73000000D03*
X110694998Y-65330700D03*
X139000000Y-47500000D03*
X106000000Y-79000000D03*
X105000000Y-96000000D03*
X142850000Y-59775000D03*
X101000000Y-90000000D03*
X133425000Y-62932350D03*
D16*
X111250000Y-56900000D03*
X134024999Y-83454560D03*
D17*
X123950000Y-73950000D03*
X118000000Y-93000000D03*
X120500000Y-55100000D03*
X117000000Y-90000000D03*
X144037502Y-74475000D03*
X103000000Y-84000000D03*
X104000000Y-95000000D03*
X106000000Y-73000000D03*
X107000000Y-98000000D03*
X127550007Y-77234077D03*
X139000000Y-93000000D03*
X120942191Y-48475539D03*
D16*
X135930000Y-73010000D03*
D17*
X126675000Y-53650000D03*
X116000000Y-77000000D03*
X101000000Y-94000000D03*
X141000000Y-47500000D03*
X148000000Y-100000000D03*
X114000000Y-71000000D03*
D16*
X103175000Y-62225000D03*
D17*
X138250000Y-67250000D03*
X123000000Y-67182350D03*
X150000000Y-66000000D03*
X103000000Y-80000000D03*
X110000000Y-44000000D03*
X99000000Y-86000000D03*
X121350000Y-55100000D03*
X107000000Y-72000000D03*
X117000000Y-76000000D03*
X126000000Y-95000000D03*
X118000000Y-97000000D03*
X117000000Y-92000000D03*
X122920000Y-73130000D03*
X102000000Y-87000000D03*
X118000000Y-81000000D03*
D16*
X136582353Y-70289806D03*
D17*
X112652149Y-63337851D03*
D16*
X129800070Y-60539978D03*
D17*
X156000000Y-81000000D03*
X135000000Y-45000000D03*
X156750000Y-60000000D03*
X125000000Y-94000000D03*
D16*
X130507350Y-74824736D03*
D17*
X123000000Y-100000000D03*
X156000000Y-85000000D03*
X123875000Y-87875000D03*
X113750000Y-45000000D03*
X101000000Y-82000000D03*
X156000000Y-54000000D03*
X99000000Y-84000000D03*
X122000000Y-99000000D03*
X150000000Y-45000000D03*
X140000000Y-88000000D03*
D16*
X131825000Y-76150000D03*
D17*
X135600000Y-80525000D03*
X102000000Y-91000000D03*
X151000000Y-67000000D03*
X106000000Y-89000000D03*
X144000000Y-89000000D03*
X107000000Y-47000000D03*
D16*
X132600000Y-74550000D03*
D17*
X129335108Y-61857350D03*
X139650000Y-74750000D03*
X146000000Y-66000000D03*
X145902900Y-64097100D03*
X146000000Y-68000000D03*
D16*
X123047098Y-70948687D03*
D17*
X105750000Y-57825000D03*
D16*
X111250000Y-60550000D03*
X116450000Y-62450000D03*
D17*
X128200000Y-74800000D03*
D16*
X104525000Y-63650000D03*
D17*
X140000000Y-59627900D03*
%TD*%
%TA.AperFunction,Conductor*%
%TO.N,GND*%
G36*
X153703032Y-43600648D02*
G01*
X154056532Y-43618015D01*
X154068640Y-43619208D01*
X154177576Y-43635367D01*
X154415717Y-43670692D01*
X154427635Y-43673062D01*
X154768008Y-43758321D01*
X154779646Y-43761852D01*
X155109996Y-43880054D01*
X155121237Y-43884710D01*
X155346857Y-43991419D01*
X155438433Y-44034731D01*
X155449150Y-44040459D01*
X155750102Y-44220843D01*
X155760220Y-44227603D01*
X156042049Y-44436622D01*
X156051455Y-44444342D01*
X156311436Y-44679974D01*
X156320025Y-44688563D01*
X156481782Y-44867035D01*
X156555657Y-44948544D01*
X156563377Y-44957950D01*
X156772396Y-45239779D01*
X156779156Y-45249897D01*
X156959533Y-45550837D01*
X156965270Y-45561570D01*
X157115289Y-45878762D01*
X157119945Y-45890003D01*
X157238147Y-46220353D01*
X157241680Y-46231998D01*
X157326934Y-46572351D01*
X157329308Y-46584287D01*
X157380791Y-46931359D01*
X157381984Y-46943468D01*
X157399351Y-47296966D01*
X157399500Y-47303051D01*
X157399500Y-99296948D01*
X157399351Y-99303033D01*
X157381984Y-99656531D01*
X157380791Y-99668640D01*
X157329308Y-100015712D01*
X157326934Y-100027648D01*
X157241680Y-100368001D01*
X157238147Y-100379646D01*
X157119945Y-100709996D01*
X157115289Y-100721237D01*
X156965270Y-101038429D01*
X156959533Y-101049162D01*
X156779156Y-101350102D01*
X156772396Y-101360220D01*
X156563377Y-101642049D01*
X156555657Y-101651455D01*
X156320033Y-101911428D01*
X156311428Y-101920033D01*
X156051455Y-102155657D01*
X156042049Y-102163377D01*
X155760220Y-102372396D01*
X155750102Y-102379156D01*
X155449162Y-102559533D01*
X155438429Y-102565270D01*
X155121237Y-102715289D01*
X155109996Y-102719945D01*
X154779646Y-102838147D01*
X154768001Y-102841680D01*
X154427648Y-102926934D01*
X154415712Y-102929308D01*
X154068640Y-102980791D01*
X154056531Y-102981984D01*
X153723016Y-102998369D01*
X153703031Y-102999351D01*
X153696949Y-102999500D01*
X101703051Y-102999500D01*
X101696968Y-102999351D01*
X101675811Y-102998311D01*
X101343468Y-102981984D01*
X101331359Y-102980791D01*
X100984287Y-102929308D01*
X100972351Y-102926934D01*
X100631998Y-102841680D01*
X100620353Y-102838147D01*
X100290003Y-102719945D01*
X100278762Y-102715289D01*
X99961570Y-102565270D01*
X99950842Y-102559535D01*
X99649897Y-102379156D01*
X99639779Y-102372396D01*
X99357950Y-102163377D01*
X99348544Y-102155657D01*
X99232295Y-102050296D01*
X99088563Y-101920025D01*
X99079974Y-101911436D01*
X98844342Y-101651455D01*
X98836622Y-101642049D01*
X98627603Y-101360220D01*
X98620843Y-101350102D01*
X98440459Y-101049150D01*
X98434729Y-101038429D01*
X98284710Y-100721237D01*
X98280054Y-100709996D01*
X98161852Y-100379646D01*
X98158319Y-100368001D01*
X98073062Y-100027635D01*
X98070691Y-100015712D01*
X98019208Y-99668640D01*
X98018015Y-99656530D01*
X98013306Y-99560666D01*
X98013246Y-99559448D01*
X110414500Y-99559448D01*
X110414500Y-99740551D01*
X110442829Y-99919410D01*
X110498787Y-100091636D01*
X110498788Y-100091639D01*
X110581006Y-100252997D01*
X110687441Y-100399494D01*
X110687445Y-100399499D01*
X110815500Y-100527554D01*
X110815505Y-100527558D01*
X110943287Y-100620396D01*
X110962006Y-100633996D01*
X111028982Y-100668122D01*
X111123360Y-100716211D01*
X111123363Y-100716212D01*
X111209476Y-100744191D01*
X111295591Y-100772171D01*
X111378429Y-100785291D01*
X111474449Y-100800500D01*
X111474454Y-100800500D01*
X111655551Y-100800500D01*
X111742259Y-100786765D01*
X111834409Y-100772171D01*
X112006639Y-100716211D01*
X112167994Y-100633996D01*
X112314501Y-100527553D01*
X112442553Y-100399501D01*
X112548996Y-100252994D01*
X112631211Y-100091639D01*
X112687171Y-99919409D01*
X112701892Y-99826461D01*
X112715500Y-99740551D01*
X112715500Y-99559448D01*
X112696539Y-99439738D01*
X112687171Y-99380591D01*
X112665558Y-99314071D01*
X113454499Y-99314071D01*
X113479497Y-99439738D01*
X113479499Y-99439744D01*
X113528533Y-99558124D01*
X113528538Y-99558133D01*
X113599723Y-99664668D01*
X113599726Y-99664672D01*
X113690327Y-99755273D01*
X113690331Y-99755276D01*
X113796866Y-99826461D01*
X113796872Y-99826464D01*
X113796873Y-99826465D01*
X113915256Y-99875501D01*
X113915260Y-99875501D01*
X113915261Y-99875502D01*
X114040928Y-99900500D01*
X114040931Y-99900500D01*
X114169071Y-99900500D01*
X114253615Y-99883682D01*
X114294744Y-99875501D01*
X114413127Y-99826465D01*
X114519669Y-99755276D01*
X114610276Y-99664669D01*
X114681465Y-99558127D01*
X114730501Y-99439744D01*
X114755500Y-99314069D01*
X114755500Y-98385931D01*
X114755500Y-98385928D01*
X114730502Y-98260261D01*
X114730501Y-98260260D01*
X114730501Y-98260256D01*
X114681465Y-98141873D01*
X114681464Y-98141872D01*
X114681461Y-98141866D01*
X114610276Y-98035331D01*
X114610273Y-98035327D01*
X114519672Y-97944726D01*
X114519668Y-97944723D01*
X114413133Y-97873538D01*
X114413124Y-97873533D01*
X114294744Y-97824499D01*
X114294738Y-97824497D01*
X114169071Y-97799500D01*
X114169069Y-97799500D01*
X114040931Y-97799500D01*
X114040929Y-97799500D01*
X113915261Y-97824497D01*
X113915255Y-97824499D01*
X113796875Y-97873533D01*
X113796866Y-97873538D01*
X113690331Y-97944723D01*
X113690327Y-97944726D01*
X113599726Y-98035327D01*
X113599723Y-98035331D01*
X113528538Y-98141866D01*
X113528533Y-98141875D01*
X113479499Y-98260255D01*
X113479497Y-98260261D01*
X113454500Y-98385928D01*
X113454500Y-98385931D01*
X113454500Y-99314069D01*
X113454500Y-99314071D01*
X113454499Y-99314071D01*
X112665558Y-99314071D01*
X112631211Y-99208361D01*
X112631211Y-99208360D01*
X112602740Y-99152484D01*
X112548996Y-99047006D01*
X112535396Y-99028287D01*
X112442558Y-98900505D01*
X112442554Y-98900500D01*
X112314499Y-98772445D01*
X112314494Y-98772441D01*
X112167997Y-98666006D01*
X112167996Y-98666005D01*
X112167994Y-98666004D01*
X112116300Y-98639664D01*
X112006639Y-98583788D01*
X112006636Y-98583787D01*
X111834410Y-98527829D01*
X111673305Y-98502312D01*
X111655551Y-98499500D01*
X111655546Y-98499500D01*
X111474454Y-98499500D01*
X111474449Y-98499500D01*
X111295589Y-98527829D01*
X111123363Y-98583787D01*
X111123360Y-98583788D01*
X110962002Y-98666006D01*
X110815505Y-98772441D01*
X110815500Y-98772445D01*
X110687445Y-98900500D01*
X110687441Y-98900505D01*
X110581006Y-99047002D01*
X110498788Y-99208360D01*
X110498787Y-99208363D01*
X110442829Y-99380589D01*
X110414500Y-99559448D01*
X98013246Y-99559448D01*
X98000649Y-99303033D01*
X98000500Y-99296948D01*
X98000500Y-96994234D01*
X130734500Y-96994234D01*
X130734500Y-97145765D01*
X130773719Y-97292136D01*
X130811602Y-97357750D01*
X130849485Y-97423365D01*
X130956635Y-97530515D01*
X131087865Y-97606281D01*
X131234234Y-97645500D01*
X131234236Y-97645500D01*
X131385764Y-97645500D01*
X131385766Y-97645500D01*
X131532135Y-97606281D01*
X131663365Y-97530515D01*
X131770515Y-97423365D01*
X131846281Y-97292135D01*
X131885500Y-97145766D01*
X131885500Y-96994234D01*
X136514500Y-96994234D01*
X136514500Y-97145765D01*
X136553719Y-97292136D01*
X136591602Y-97357750D01*
X136629485Y-97423365D01*
X136736635Y-97530515D01*
X136867865Y-97606281D01*
X137014234Y-97645500D01*
X137014236Y-97645500D01*
X137165764Y-97645500D01*
X137165766Y-97645500D01*
X137312135Y-97606281D01*
X137443365Y-97530515D01*
X137550515Y-97423365D01*
X137626281Y-97292135D01*
X137665500Y-97145766D01*
X137665500Y-96994234D01*
X137626281Y-96847865D01*
X137550515Y-96716635D01*
X137443365Y-96609485D01*
X137377750Y-96571602D01*
X137312136Y-96533719D01*
X137238950Y-96514109D01*
X137165766Y-96494500D01*
X137014234Y-96494500D01*
X136867863Y-96533719D01*
X136736635Y-96609485D01*
X136736632Y-96609487D01*
X136629487Y-96716632D01*
X136629485Y-96716635D01*
X136553719Y-96847863D01*
X136514500Y-96994234D01*
X131885500Y-96994234D01*
X131846281Y-96847865D01*
X131770515Y-96716635D01*
X131663365Y-96609485D01*
X131597750Y-96571602D01*
X131532136Y-96533719D01*
X131458950Y-96514109D01*
X131385766Y-96494500D01*
X131234234Y-96494500D01*
X131087863Y-96533719D01*
X130956635Y-96609485D01*
X130956632Y-96609487D01*
X130849487Y-96716632D01*
X130849485Y-96716635D01*
X130773719Y-96847863D01*
X130734500Y-96994234D01*
X98000500Y-96994234D01*
X98000500Y-92014071D01*
X108594499Y-92014071D01*
X108619497Y-92139738D01*
X108619499Y-92139744D01*
X108668533Y-92258124D01*
X108668538Y-92258133D01*
X108739723Y-92364668D01*
X108739726Y-92364672D01*
X108830327Y-92455273D01*
X108830331Y-92455276D01*
X108936866Y-92526461D01*
X108936872Y-92526464D01*
X108936873Y-92526465D01*
X109055256Y-92575501D01*
X109055260Y-92575501D01*
X109055261Y-92575502D01*
X109180928Y-92600500D01*
X109180931Y-92600500D01*
X109309071Y-92600500D01*
X109393615Y-92583682D01*
X109434744Y-92575501D01*
X109473499Y-92559448D01*
X110414500Y-92559448D01*
X110414500Y-92740551D01*
X110442829Y-92919410D01*
X110498787Y-93091636D01*
X110498788Y-93091639D01*
X110581006Y-93252997D01*
X110687441Y-93399494D01*
X110687445Y-93399499D01*
X110815500Y-93527554D01*
X110815505Y-93527558D01*
X110943287Y-93620396D01*
X110962006Y-93633996D01*
X111067484Y-93687740D01*
X111123360Y-93716211D01*
X111123363Y-93716212D01*
X111209476Y-93744191D01*
X111295591Y-93772171D01*
X111378429Y-93785291D01*
X111474449Y-93800500D01*
X111474454Y-93800500D01*
X111655551Y-93800500D01*
X111742259Y-93786765D01*
X111834409Y-93772171D01*
X112006639Y-93716211D01*
X112167994Y-93633996D01*
X112314501Y-93527553D01*
X112442553Y-93399501D01*
X112548996Y-93252994D01*
X112631211Y-93091639D01*
X112687171Y-92919409D01*
X112704262Y-92811499D01*
X112715500Y-92740551D01*
X112715500Y-92559447D01*
X112707483Y-92508829D01*
X112705698Y-92497559D01*
X133877181Y-92497559D01*
X133877181Y-92596429D01*
X133902771Y-92691932D01*
X133952206Y-92777556D01*
X134022119Y-92847469D01*
X134107743Y-92896904D01*
X134203246Y-92922494D01*
X134203248Y-92922494D01*
X134302113Y-92922494D01*
X134302116Y-92922494D01*
X134397619Y-92896904D01*
X134483243Y-92847469D01*
X134553156Y-92777556D01*
X134602591Y-92691932D01*
X134602593Y-92691923D01*
X134605700Y-92684425D01*
X134607324Y-92685097D01*
X134638502Y-92633937D01*
X134701346Y-92603401D01*
X134770722Y-92611689D01*
X134824604Y-92656169D01*
X134841696Y-92693588D01*
X134850347Y-92725876D01*
X134850348Y-92725877D01*
X134899782Y-92811499D01*
X134969695Y-92881412D01*
X135055319Y-92930847D01*
X135150822Y-92956437D01*
X135150824Y-92956437D01*
X135249689Y-92956437D01*
X135249692Y-92956437D01*
X135345195Y-92930847D01*
X135430819Y-92881412D01*
X135500732Y-92811499D01*
X135550167Y-92725875D01*
X135575757Y-92630372D01*
X135575757Y-92531502D01*
X135550167Y-92435999D01*
X135500732Y-92350375D01*
X135430819Y-92280462D01*
X135345195Y-92231027D01*
X135249692Y-92205437D01*
X135150822Y-92205437D01*
X135055319Y-92231027D01*
X135055317Y-92231028D01*
X135055316Y-92231028D01*
X134969693Y-92280463D01*
X134899783Y-92350373D01*
X134850348Y-92435996D01*
X134847238Y-92443506D01*
X134845616Y-92442834D01*
X134814418Y-92494009D01*
X134751568Y-92524533D01*
X134682193Y-92516232D01*
X134628319Y-92471742D01*
X134611241Y-92434340D01*
X134602591Y-92402057D01*
X134602589Y-92402054D01*
X134553156Y-92316432D01*
X134483243Y-92246519D01*
X134397619Y-92197084D01*
X134302116Y-92171494D01*
X134203246Y-92171494D01*
X134107743Y-92197084D01*
X134107741Y-92197085D01*
X134107740Y-92197085D01*
X134022117Y-92246520D01*
X133952207Y-92316430D01*
X133902772Y-92402053D01*
X133902772Y-92402054D01*
X133902771Y-92402056D01*
X133877181Y-92497559D01*
X112705698Y-92497559D01*
X112694620Y-92427628D01*
X112687171Y-92380591D01*
X112647380Y-92258124D01*
X112631212Y-92208363D01*
X112631211Y-92208360D01*
X112596249Y-92139744D01*
X112548996Y-92047006D01*
X112535396Y-92028287D01*
X112442558Y-91900505D01*
X112442554Y-91900500D01*
X112314499Y-91772445D01*
X112314494Y-91772441D01*
X112167997Y-91666006D01*
X112167996Y-91666005D01*
X112167994Y-91666004D01*
X112116300Y-91639664D01*
X112006639Y-91583788D01*
X112006636Y-91583787D01*
X111834410Y-91527829D01*
X111655551Y-91499500D01*
X111655546Y-91499500D01*
X111474454Y-91499500D01*
X111474449Y-91499500D01*
X111295589Y-91527829D01*
X111123363Y-91583787D01*
X111123360Y-91583788D01*
X110962002Y-91666006D01*
X110815505Y-91772441D01*
X110815500Y-91772445D01*
X110687445Y-91900500D01*
X110687441Y-91900505D01*
X110581006Y-92047002D01*
X110498788Y-92208360D01*
X110498787Y-92208363D01*
X110442829Y-92380589D01*
X110414500Y-92559448D01*
X109473499Y-92559448D01*
X109553127Y-92526465D01*
X109659669Y-92455276D01*
X109750276Y-92364669D01*
X109821465Y-92258127D01*
X109870501Y-92139744D01*
X109895500Y-92014069D01*
X109895500Y-90775565D01*
X128474500Y-90775565D01*
X128474500Y-90874435D01*
X128500090Y-90969938D01*
X128549525Y-91055562D01*
X128619438Y-91125475D01*
X128705062Y-91174910D01*
X128800565Y-91200500D01*
X128800567Y-91200500D01*
X128899432Y-91200500D01*
X128899435Y-91200500D01*
X128994938Y-91174910D01*
X129080562Y-91125475D01*
X129150475Y-91055562D01*
X129199910Y-90969938D01*
X129225500Y-90874435D01*
X129225500Y-90775565D01*
X129199910Y-90680062D01*
X129150475Y-90594438D01*
X129080562Y-90524525D01*
X128994938Y-90475090D01*
X128899435Y-90449500D01*
X128800565Y-90449500D01*
X128705062Y-90475090D01*
X128705060Y-90475091D01*
X128705059Y-90475091D01*
X128619436Y-90524526D01*
X128549526Y-90594436D01*
X128500091Y-90680059D01*
X128500091Y-90680060D01*
X128500090Y-90680062D01*
X128474500Y-90775565D01*
X109895500Y-90775565D01*
X109895500Y-90685931D01*
X109895500Y-90685928D01*
X109870502Y-90560261D01*
X109870501Y-90560260D01*
X109870501Y-90560256D01*
X109821465Y-90441873D01*
X109821464Y-90441872D01*
X109821461Y-90441866D01*
X109750276Y-90335331D01*
X109750273Y-90335327D01*
X109659672Y-90244726D01*
X109659668Y-90244723D01*
X109553133Y-90173538D01*
X109553124Y-90173533D01*
X109434744Y-90124499D01*
X109434738Y-90124497D01*
X109309071Y-90099500D01*
X109309069Y-90099500D01*
X109180931Y-90099500D01*
X109180929Y-90099500D01*
X109055261Y-90124497D01*
X109055255Y-90124499D01*
X108936875Y-90173533D01*
X108936866Y-90173538D01*
X108830331Y-90244723D01*
X108830327Y-90244726D01*
X108739726Y-90335327D01*
X108739723Y-90335331D01*
X108668538Y-90441866D01*
X108668533Y-90441875D01*
X108619499Y-90560255D01*
X108619497Y-90560261D01*
X108594500Y-90685928D01*
X108594500Y-90685931D01*
X108594500Y-92014069D01*
X108594500Y-92014071D01*
X108594499Y-92014071D01*
X98000500Y-92014071D01*
X98000500Y-88514071D01*
X111064499Y-88514071D01*
X111089497Y-88639738D01*
X111089499Y-88639744D01*
X111138533Y-88758124D01*
X111138538Y-88758133D01*
X111209723Y-88864668D01*
X111209726Y-88864672D01*
X111300327Y-88955273D01*
X111300331Y-88955276D01*
X111406866Y-89026461D01*
X111406872Y-89026464D01*
X111406873Y-89026465D01*
X111525256Y-89075501D01*
X111525260Y-89075501D01*
X111525261Y-89075502D01*
X111650928Y-89100500D01*
X111650931Y-89100500D01*
X112979071Y-89100500D01*
X113063615Y-89083682D01*
X113104744Y-89075501D01*
X113223127Y-89026465D01*
X113329669Y-88955276D01*
X113420276Y-88864669D01*
X113491465Y-88758127D01*
X113540501Y-88639744D01*
X113565500Y-88514069D01*
X113565500Y-88385931D01*
X113565500Y-88385928D01*
X113540502Y-88260261D01*
X113540501Y-88260260D01*
X113540501Y-88260256D01*
X113491465Y-88141873D01*
X113491464Y-88141872D01*
X113491461Y-88141866D01*
X113420276Y-88035331D01*
X113420273Y-88035327D01*
X113329672Y-87944726D01*
X113329668Y-87944723D01*
X113223133Y-87873538D01*
X113223124Y-87873533D01*
X113104744Y-87824499D01*
X113104738Y-87824497D01*
X112979071Y-87799500D01*
X112979069Y-87799500D01*
X111650931Y-87799500D01*
X111650929Y-87799500D01*
X111525261Y-87824497D01*
X111525255Y-87824499D01*
X111406875Y-87873533D01*
X111406866Y-87873538D01*
X111300331Y-87944723D01*
X111300327Y-87944726D01*
X111209726Y-88035327D01*
X111209723Y-88035331D01*
X111138538Y-88141866D01*
X111138533Y-88141875D01*
X111089499Y-88260255D01*
X111089497Y-88260261D01*
X111064500Y-88385928D01*
X111064500Y-88385931D01*
X111064500Y-88514069D01*
X111064500Y-88514071D01*
X111064499Y-88514071D01*
X98000500Y-88514071D01*
X98000500Y-87072273D01*
X121399500Y-87072273D01*
X121399500Y-87177727D01*
X121426793Y-87279587D01*
X121479520Y-87370913D01*
X121554087Y-87445480D01*
X121645413Y-87498207D01*
X121747273Y-87525500D01*
X121747275Y-87525500D01*
X121852725Y-87525500D01*
X121852727Y-87525500D01*
X121954587Y-87498207D01*
X122045913Y-87445480D01*
X122120480Y-87370913D01*
X122173207Y-87279587D01*
X122200500Y-87177727D01*
X122200500Y-87072273D01*
X122173207Y-86970413D01*
X122120480Y-86879087D01*
X122045913Y-86804520D01*
X121954587Y-86751793D01*
X121852727Y-86724500D01*
X121747273Y-86724500D01*
X121645413Y-86751793D01*
X121645410Y-86751794D01*
X121554085Y-86804521D01*
X121479521Y-86879085D01*
X121426794Y-86970410D01*
X121426793Y-86970413D01*
X121399500Y-87072273D01*
X98000500Y-87072273D01*
X98000500Y-85450565D01*
X134249500Y-85450565D01*
X134249500Y-85549435D01*
X134275090Y-85644938D01*
X134324525Y-85730562D01*
X134394438Y-85800475D01*
X134480062Y-85849910D01*
X134575565Y-85875500D01*
X134575567Y-85875500D01*
X134674432Y-85875500D01*
X134674435Y-85875500D01*
X134769938Y-85849910D01*
X134855562Y-85800475D01*
X134925475Y-85730562D01*
X134974910Y-85644938D01*
X135000500Y-85549435D01*
X135000500Y-85527556D01*
X136339547Y-85527556D01*
X136339547Y-85626426D01*
X136365137Y-85721929D01*
X136414572Y-85807553D01*
X136484485Y-85877466D01*
X136570109Y-85926901D01*
X136665612Y-85952491D01*
X136665614Y-85952491D01*
X136764479Y-85952491D01*
X136764482Y-85952491D01*
X136859985Y-85926901D01*
X136945609Y-85877466D01*
X137015522Y-85807553D01*
X137064957Y-85721929D01*
X137090547Y-85626426D01*
X137090547Y-85527556D01*
X137064957Y-85432053D01*
X137015522Y-85346429D01*
X136945609Y-85276516D01*
X136859985Y-85227081D01*
X136764482Y-85201491D01*
X136665612Y-85201491D01*
X136570109Y-85227081D01*
X136570107Y-85227082D01*
X136570106Y-85227082D01*
X136484483Y-85276517D01*
X136414573Y-85346427D01*
X136365138Y-85432050D01*
X136365138Y-85432051D01*
X136365137Y-85432053D01*
X136339547Y-85527556D01*
X135000500Y-85527556D01*
X135000500Y-85450565D01*
X134974910Y-85355062D01*
X134925475Y-85269438D01*
X134855562Y-85199525D01*
X134769938Y-85150090D01*
X134674435Y-85124500D01*
X134575565Y-85124500D01*
X134480062Y-85150090D01*
X134480060Y-85150091D01*
X134480059Y-85150091D01*
X134394436Y-85199526D01*
X134324526Y-85269436D01*
X134275091Y-85355059D01*
X134275091Y-85355060D01*
X134275090Y-85355062D01*
X134249500Y-85450565D01*
X98000500Y-85450565D01*
X98000500Y-84334108D01*
X124624500Y-84334108D01*
X124624500Y-84465892D01*
X124641554Y-84529539D01*
X124658608Y-84593187D01*
X124680114Y-84630435D01*
X124724500Y-84707314D01*
X124817686Y-84800500D01*
X124931814Y-84866392D01*
X125059108Y-84900500D01*
X125059110Y-84900500D01*
X125190890Y-84900500D01*
X125190892Y-84900500D01*
X125318186Y-84866392D01*
X125432314Y-84800500D01*
X125525500Y-84707314D01*
X125529397Y-84700565D01*
X137524500Y-84700565D01*
X137524500Y-84799435D01*
X137550090Y-84894938D01*
X137599525Y-84980562D01*
X137669438Y-85050475D01*
X137755062Y-85099910D01*
X137850565Y-85125500D01*
X137850567Y-85125500D01*
X137949432Y-85125500D01*
X137949435Y-85125500D01*
X138044938Y-85099910D01*
X138130562Y-85050475D01*
X138200475Y-84980562D01*
X138249910Y-84894938D01*
X138275500Y-84799435D01*
X138275500Y-84700565D01*
X138249910Y-84605062D01*
X138200475Y-84519438D01*
X138130562Y-84449525D01*
X138044938Y-84400090D01*
X137949435Y-84374500D01*
X137850565Y-84374500D01*
X137755062Y-84400090D01*
X137755060Y-84400091D01*
X137755059Y-84400091D01*
X137669436Y-84449526D01*
X137599526Y-84519436D01*
X137550091Y-84605059D01*
X137550091Y-84605060D01*
X137550090Y-84605062D01*
X137524500Y-84700565D01*
X125529397Y-84700565D01*
X125591392Y-84593186D01*
X125625500Y-84465892D01*
X125625500Y-84334108D01*
X125591392Y-84206814D01*
X125525500Y-84092686D01*
X125432314Y-83999500D01*
X125318186Y-83933608D01*
X125190892Y-83899500D01*
X125059108Y-83899500D01*
X124931812Y-83933608D01*
X124817686Y-83999500D01*
X124817683Y-83999502D01*
X124724502Y-84092683D01*
X124724500Y-84092686D01*
X124658608Y-84206812D01*
X124640204Y-84275500D01*
X124624500Y-84334108D01*
X98000500Y-84334108D01*
X98000500Y-83850565D01*
X134274500Y-83850565D01*
X134274500Y-83949435D01*
X134300090Y-84044938D01*
X134349525Y-84130562D01*
X134419438Y-84200475D01*
X134505062Y-84249910D01*
X134600565Y-84275500D01*
X134600567Y-84275500D01*
X134699432Y-84275500D01*
X134699435Y-84275500D01*
X134794938Y-84249910D01*
X134880562Y-84200475D01*
X134950475Y-84130562D01*
X134999910Y-84044938D01*
X135025500Y-83949435D01*
X135025500Y-83850565D01*
X134999910Y-83755062D01*
X134950475Y-83669438D01*
X134880562Y-83599525D01*
X134794938Y-83550090D01*
X134699435Y-83524500D01*
X134600565Y-83524500D01*
X134505062Y-83550090D01*
X134505060Y-83550091D01*
X134505059Y-83550091D01*
X134419436Y-83599526D01*
X134349526Y-83669436D01*
X134300091Y-83755059D01*
X134300091Y-83755060D01*
X134300090Y-83755062D01*
X134274500Y-83850565D01*
X98000500Y-83850565D01*
X98000500Y-83084108D01*
X124624500Y-83084108D01*
X124624500Y-83215891D01*
X124658608Y-83343187D01*
X124691554Y-83400250D01*
X124724500Y-83457314D01*
X124817686Y-83550500D01*
X124931814Y-83616392D01*
X125059108Y-83650500D01*
X125059110Y-83650500D01*
X125190890Y-83650500D01*
X125190892Y-83650500D01*
X125318186Y-83616392D01*
X125432314Y-83550500D01*
X125525500Y-83457314D01*
X125591392Y-83343186D01*
X125625500Y-83215892D01*
X125625500Y-83084108D01*
X125591392Y-82956814D01*
X125587784Y-82950565D01*
X133074500Y-82950565D01*
X133074500Y-83049435D01*
X133100090Y-83144938D01*
X133149525Y-83230562D01*
X133219438Y-83300475D01*
X133305062Y-83349910D01*
X133400565Y-83375500D01*
X133400567Y-83375500D01*
X133499432Y-83375500D01*
X133499435Y-83375500D01*
X133594938Y-83349910D01*
X133680562Y-83300475D01*
X133750475Y-83230562D01*
X133799910Y-83144938D01*
X133825500Y-83049435D01*
X133825500Y-82950565D01*
X133799910Y-82855062D01*
X133750475Y-82769438D01*
X133680562Y-82699525D01*
X133594938Y-82650090D01*
X133499435Y-82624500D01*
X133400565Y-82624500D01*
X133305062Y-82650090D01*
X133305060Y-82650091D01*
X133305059Y-82650091D01*
X133219436Y-82699526D01*
X133149526Y-82769436D01*
X133100091Y-82855059D01*
X133100091Y-82855060D01*
X133100090Y-82855062D01*
X133074500Y-82950565D01*
X125587784Y-82950565D01*
X125525500Y-82842686D01*
X125432314Y-82749500D01*
X125345755Y-82699525D01*
X125318187Y-82683608D01*
X125254539Y-82666554D01*
X125190892Y-82649500D01*
X125059108Y-82649500D01*
X124931812Y-82683608D01*
X124817686Y-82749500D01*
X124817683Y-82749502D01*
X124724502Y-82842683D01*
X124724500Y-82842686D01*
X124658608Y-82956812D01*
X124624500Y-83084108D01*
X98000500Y-83084108D01*
X98000500Y-77897273D01*
X127649500Y-77897273D01*
X127649500Y-78002727D01*
X127676793Y-78104587D01*
X127729520Y-78195913D01*
X127804087Y-78270480D01*
X127895413Y-78323207D01*
X127997273Y-78350500D01*
X127997275Y-78350500D01*
X128102725Y-78350500D01*
X128102727Y-78350500D01*
X128204587Y-78323207D01*
X128295913Y-78270480D01*
X128370480Y-78195913D01*
X128423207Y-78104587D01*
X128450500Y-78002727D01*
X128450500Y-77897273D01*
X128423207Y-77795413D01*
X128370480Y-77704087D01*
X128295913Y-77629520D01*
X128204587Y-77576793D01*
X128102727Y-77549500D01*
X127997273Y-77549500D01*
X127895413Y-77576793D01*
X127895410Y-77576794D01*
X127804085Y-77629521D01*
X127729521Y-77704085D01*
X127676794Y-77795410D01*
X127676793Y-77795413D01*
X127649500Y-77897273D01*
X98000500Y-77897273D01*
X98000500Y-76847273D01*
X125524500Y-76847273D01*
X125524500Y-76952727D01*
X125551793Y-77054587D01*
X125604520Y-77145913D01*
X125679087Y-77220480D01*
X125770413Y-77273207D01*
X125872273Y-77300500D01*
X125872275Y-77300500D01*
X125977725Y-77300500D01*
X125977727Y-77300500D01*
X126079587Y-77273207D01*
X126170913Y-77220480D01*
X126245480Y-77145913D01*
X126298207Y-77054587D01*
X126325500Y-76952727D01*
X126325500Y-76847273D01*
X126298207Y-76745413D01*
X126245480Y-76654087D01*
X126170913Y-76579520D01*
X126079587Y-76526793D01*
X125977727Y-76499500D01*
X125872273Y-76499500D01*
X125770413Y-76526793D01*
X125770410Y-76526794D01*
X125679085Y-76579521D01*
X125604521Y-76654085D01*
X125551794Y-76745410D01*
X125551793Y-76745413D01*
X125524500Y-76847273D01*
X98000500Y-76847273D01*
X98000500Y-76331348D01*
X127149464Y-76331348D01*
X127149464Y-76436802D01*
X127176757Y-76538662D01*
X127229484Y-76629988D01*
X127304051Y-76704555D01*
X127395377Y-76757282D01*
X127497237Y-76784575D01*
X127497239Y-76784575D01*
X127602689Y-76784575D01*
X127602691Y-76784575D01*
X127704551Y-76757282D01*
X127795877Y-76704555D01*
X127870444Y-76629988D01*
X127923171Y-76538662D01*
X127950464Y-76436802D01*
X127950464Y-76331348D01*
X127923171Y-76229488D01*
X127870444Y-76138162D01*
X127832847Y-76100565D01*
X130724500Y-76100565D01*
X130724500Y-76199435D01*
X130750090Y-76294938D01*
X130799525Y-76380562D01*
X130869438Y-76450475D01*
X130955062Y-76499910D01*
X131050565Y-76525500D01*
X131050567Y-76525500D01*
X131149432Y-76525500D01*
X131149435Y-76525500D01*
X131244938Y-76499910D01*
X131330562Y-76450475D01*
X131400475Y-76380562D01*
X131449910Y-76294938D01*
X131475500Y-76199435D01*
X131475500Y-76100565D01*
X132174500Y-76100565D01*
X132174500Y-76199435D01*
X132200090Y-76294938D01*
X132249525Y-76380562D01*
X132319438Y-76450475D01*
X132405062Y-76499910D01*
X132500565Y-76525500D01*
X132500567Y-76525500D01*
X132599432Y-76525500D01*
X132599435Y-76525500D01*
X132694938Y-76499910D01*
X132780562Y-76450475D01*
X132850475Y-76380562D01*
X132899910Y-76294938D01*
X132925500Y-76199435D01*
X132925500Y-76100565D01*
X132899910Y-76005062D01*
X132850475Y-75919438D01*
X132828218Y-75897181D01*
X132794733Y-75835858D01*
X132799717Y-75766166D01*
X132841589Y-75710233D01*
X132907053Y-75685816D01*
X132915899Y-75685500D01*
X132999432Y-75685500D01*
X132999435Y-75685500D01*
X133094938Y-75659910D01*
X133180562Y-75610475D01*
X133250475Y-75540562D01*
X133299910Y-75454938D01*
X133325500Y-75359435D01*
X133325500Y-75260565D01*
X133299910Y-75165062D01*
X133262617Y-75100469D01*
X135565121Y-75100469D01*
X135565121Y-75199339D01*
X135590711Y-75294842D01*
X135640146Y-75380466D01*
X135710059Y-75450379D01*
X135795683Y-75499814D01*
X135891186Y-75525404D01*
X135891188Y-75525404D01*
X135990053Y-75525404D01*
X135990056Y-75525404D01*
X136085559Y-75499814D01*
X136171183Y-75450379D01*
X136232572Y-75388990D01*
X136906850Y-75388990D01*
X136906850Y-75487860D01*
X136932440Y-75583363D01*
X136981875Y-75668987D01*
X137051788Y-75738900D01*
X137137412Y-75788335D01*
X137232915Y-75813925D01*
X137232917Y-75813925D01*
X137331782Y-75813925D01*
X137331785Y-75813925D01*
X137427288Y-75788335D01*
X137512912Y-75738900D01*
X137582825Y-75668987D01*
X137632260Y-75583363D01*
X137657850Y-75487860D01*
X137657850Y-75388990D01*
X137632260Y-75293487D01*
X137582825Y-75207863D01*
X137512912Y-75137950D01*
X137427288Y-75088515D01*
X137331785Y-75062925D01*
X137232915Y-75062925D01*
X137137412Y-75088515D01*
X137137410Y-75088516D01*
X137137409Y-75088516D01*
X137051786Y-75137951D01*
X136981876Y-75207861D01*
X136932441Y-75293484D01*
X136932441Y-75293485D01*
X136932440Y-75293487D01*
X136906850Y-75388990D01*
X136232572Y-75388990D01*
X136241096Y-75380466D01*
X136290531Y-75294842D01*
X136316121Y-75199339D01*
X136316121Y-75100469D01*
X136290531Y-75004966D01*
X136241096Y-74919342D01*
X136171183Y-74849429D01*
X136085559Y-74799994D01*
X135990056Y-74774404D01*
X135891186Y-74774404D01*
X135795683Y-74799994D01*
X135795681Y-74799995D01*
X135795680Y-74799995D01*
X135710057Y-74849430D01*
X135640147Y-74919340D01*
X135590712Y-75004963D01*
X135590712Y-75004964D01*
X135590711Y-75004966D01*
X135565121Y-75100469D01*
X133262617Y-75100469D01*
X133250475Y-75079438D01*
X133180562Y-75009525D01*
X133094938Y-74960090D01*
X132999435Y-74934500D01*
X132900565Y-74934500D01*
X132805062Y-74960090D01*
X132805060Y-74960091D01*
X132805059Y-74960091D01*
X132719436Y-75009526D01*
X132649526Y-75079436D01*
X132600091Y-75165059D01*
X132600091Y-75165060D01*
X132600090Y-75165062D01*
X132574500Y-75260565D01*
X132574500Y-75359435D01*
X132600090Y-75454938D01*
X132600091Y-75454939D01*
X132600091Y-75454940D01*
X132649526Y-75540563D01*
X132671782Y-75562819D01*
X132705267Y-75624142D01*
X132700283Y-75693834D01*
X132658411Y-75749767D01*
X132592947Y-75774184D01*
X132584101Y-75774500D01*
X132500565Y-75774500D01*
X132405062Y-75800090D01*
X132405060Y-75800091D01*
X132405059Y-75800091D01*
X132319436Y-75849526D01*
X132249526Y-75919436D01*
X132200091Y-76005059D01*
X132200091Y-76005060D01*
X132200090Y-76005062D01*
X132174500Y-76100565D01*
X131475500Y-76100565D01*
X131449910Y-76005062D01*
X131400475Y-75919438D01*
X131330562Y-75849525D01*
X131244938Y-75800090D01*
X131149435Y-75774500D01*
X131050565Y-75774500D01*
X130955062Y-75800090D01*
X130955060Y-75800091D01*
X130955059Y-75800091D01*
X130869436Y-75849526D01*
X130799526Y-75919436D01*
X130750091Y-76005059D01*
X130750091Y-76005060D01*
X130750090Y-76005062D01*
X130724500Y-76100565D01*
X127832847Y-76100565D01*
X127795877Y-76063595D01*
X127704551Y-76010868D01*
X127602691Y-75983575D01*
X127497237Y-75983575D01*
X127395377Y-76010868D01*
X127395374Y-76010869D01*
X127304049Y-76063596D01*
X127229485Y-76138160D01*
X127176758Y-76229485D01*
X127176757Y-76229488D01*
X127149464Y-76331348D01*
X98000500Y-76331348D01*
X98000500Y-74269373D01*
X124377400Y-74269373D01*
X124377400Y-74374827D01*
X124404693Y-74476687D01*
X124457420Y-74568013D01*
X124531987Y-74642580D01*
X124623313Y-74695307D01*
X124725173Y-74722600D01*
X124725175Y-74722600D01*
X124830625Y-74722600D01*
X124830627Y-74722600D01*
X124932487Y-74695307D01*
X125023813Y-74642580D01*
X125098380Y-74568013D01*
X125151107Y-74476687D01*
X125178400Y-74374827D01*
X125178400Y-74269373D01*
X125151107Y-74167513D01*
X125098380Y-74076187D01*
X125098277Y-74076084D01*
X130098688Y-74076084D01*
X130098688Y-74174954D01*
X130124278Y-74270457D01*
X130173713Y-74356081D01*
X130243626Y-74425994D01*
X130329250Y-74475429D01*
X130424753Y-74501019D01*
X130424755Y-74501019D01*
X130523620Y-74501019D01*
X130523623Y-74501019D01*
X130619126Y-74475429D01*
X130704750Y-74425994D01*
X130774663Y-74356081D01*
X130824098Y-74270457D01*
X130849688Y-74174954D01*
X130849688Y-74093215D01*
X131475708Y-74093215D01*
X131475708Y-74192085D01*
X131501298Y-74287588D01*
X131501299Y-74287589D01*
X131501299Y-74287590D01*
X131514545Y-74310532D01*
X131550733Y-74373212D01*
X131620646Y-74443125D01*
X131706270Y-74492560D01*
X131801773Y-74518150D01*
X131801775Y-74518150D01*
X131900640Y-74518150D01*
X131900643Y-74518150D01*
X131996146Y-74492560D01*
X132081770Y-74443125D01*
X132151683Y-74373212D01*
X132201118Y-74287588D01*
X132226708Y-74192085D01*
X132226708Y-74093215D01*
X132201118Y-73997712D01*
X132151683Y-73912088D01*
X132081770Y-73842175D01*
X132002750Y-73796553D01*
X131996147Y-73792740D01*
X131964311Y-73784210D01*
X131900643Y-73767150D01*
X131801773Y-73767150D01*
X131706270Y-73792740D01*
X131706268Y-73792741D01*
X131706267Y-73792741D01*
X131620644Y-73842176D01*
X131550734Y-73912086D01*
X131501299Y-73997709D01*
X131501299Y-73997710D01*
X131501298Y-73997712D01*
X131475708Y-74093215D01*
X130849688Y-74093215D01*
X130849688Y-74076084D01*
X130824098Y-73980581D01*
X130774663Y-73894957D01*
X130704750Y-73825044D01*
X130619126Y-73775609D01*
X130523623Y-73750019D01*
X130424753Y-73750019D01*
X130329250Y-73775609D01*
X130329248Y-73775610D01*
X130329247Y-73775610D01*
X130243624Y-73825045D01*
X130173714Y-73894955D01*
X130124279Y-73980578D01*
X130124279Y-73980579D01*
X130124278Y-73980581D01*
X130098688Y-74076084D01*
X125098277Y-74076084D01*
X125023813Y-74001620D01*
X124932487Y-73948893D01*
X124830627Y-73921600D01*
X124725173Y-73921600D01*
X124623313Y-73948893D01*
X124623310Y-73948894D01*
X124531985Y-74001621D01*
X124457421Y-74076185D01*
X124404694Y-74167510D01*
X124404693Y-74167513D01*
X124377400Y-74269373D01*
X98000500Y-74269373D01*
X98000500Y-73700565D01*
X133304500Y-73700565D01*
X133304500Y-73799435D01*
X133330090Y-73894938D01*
X133379525Y-73980562D01*
X133449438Y-74050475D01*
X133535062Y-74099910D01*
X133630565Y-74125500D01*
X133630567Y-74125500D01*
X133729432Y-74125500D01*
X133729435Y-74125500D01*
X133824938Y-74099910D01*
X133910562Y-74050475D01*
X133980475Y-73980562D01*
X134029910Y-73894938D01*
X134055500Y-73799435D01*
X134055500Y-73700565D01*
X135559046Y-73700565D01*
X135559046Y-73799435D01*
X135584636Y-73894938D01*
X135634071Y-73980562D01*
X135703984Y-74050475D01*
X135789608Y-74099910D01*
X135885111Y-74125500D01*
X135885113Y-74125500D01*
X135983978Y-74125500D01*
X135983981Y-74125500D01*
X136079484Y-74099910D01*
X136084051Y-74097273D01*
X141274500Y-74097273D01*
X141274500Y-74202727D01*
X141301793Y-74304587D01*
X141354520Y-74395913D01*
X141429087Y-74470480D01*
X141520413Y-74523207D01*
X141622273Y-74550500D01*
X141622275Y-74550500D01*
X141727725Y-74550500D01*
X141727727Y-74550500D01*
X141829587Y-74523207D01*
X141920913Y-74470480D01*
X141995480Y-74395913D01*
X142048207Y-74304587D01*
X142075500Y-74202727D01*
X142075500Y-74097273D01*
X142849500Y-74097273D01*
X142849500Y-74202727D01*
X142876793Y-74304587D01*
X142929520Y-74395913D01*
X143004087Y-74470480D01*
X143095413Y-74523207D01*
X143197273Y-74550500D01*
X143197275Y-74550500D01*
X143302725Y-74550500D01*
X143302727Y-74550500D01*
X143404587Y-74523207D01*
X143495913Y-74470480D01*
X143570480Y-74395913D01*
X143623207Y-74304587D01*
X143650500Y-74202727D01*
X143650500Y-74097273D01*
X144424500Y-74097273D01*
X144424500Y-74202727D01*
X144451793Y-74304587D01*
X144504520Y-74395913D01*
X144579087Y-74470480D01*
X144670413Y-74523207D01*
X144772273Y-74550500D01*
X144772275Y-74550500D01*
X144877725Y-74550500D01*
X144877727Y-74550500D01*
X144979587Y-74523207D01*
X145070913Y-74470480D01*
X145145480Y-74395913D01*
X145198207Y-74304587D01*
X145225500Y-74202727D01*
X145225500Y-74097273D01*
X147524500Y-74097273D01*
X147524500Y-74202727D01*
X147551793Y-74304587D01*
X147604520Y-74395913D01*
X147679087Y-74470480D01*
X147770413Y-74523207D01*
X147872273Y-74550500D01*
X147872275Y-74550500D01*
X147977725Y-74550500D01*
X147977727Y-74550500D01*
X148079587Y-74523207D01*
X148170913Y-74470480D01*
X148245480Y-74395913D01*
X148298207Y-74304587D01*
X148325500Y-74202727D01*
X148325500Y-74097273D01*
X149474500Y-74097273D01*
X149474500Y-74202727D01*
X149501793Y-74304587D01*
X149554520Y-74395913D01*
X149629087Y-74470480D01*
X149720413Y-74523207D01*
X149822273Y-74550500D01*
X149822275Y-74550500D01*
X149927725Y-74550500D01*
X149927727Y-74550500D01*
X150029587Y-74523207D01*
X150120913Y-74470480D01*
X150195480Y-74395913D01*
X150248207Y-74304587D01*
X150275500Y-74202727D01*
X150275500Y-74097273D01*
X150248207Y-73995413D01*
X150195480Y-73904087D01*
X150120913Y-73829520D01*
X150029587Y-73776793D01*
X149927727Y-73749500D01*
X149822273Y-73749500D01*
X149720413Y-73776793D01*
X149720410Y-73776794D01*
X149629085Y-73829521D01*
X149554521Y-73904085D01*
X149501794Y-73995410D01*
X149501793Y-73995413D01*
X149474500Y-74097273D01*
X148325500Y-74097273D01*
X148298207Y-73995413D01*
X148245480Y-73904087D01*
X148170913Y-73829520D01*
X148079587Y-73776793D01*
X147977727Y-73749500D01*
X147872273Y-73749500D01*
X147770413Y-73776793D01*
X147770410Y-73776794D01*
X147679085Y-73829521D01*
X147604521Y-73904085D01*
X147551794Y-73995410D01*
X147551793Y-73995413D01*
X147524500Y-74097273D01*
X145225500Y-74097273D01*
X145198207Y-73995413D01*
X145145480Y-73904087D01*
X145070913Y-73829520D01*
X144979587Y-73776793D01*
X144877727Y-73749500D01*
X144772273Y-73749500D01*
X144670413Y-73776793D01*
X144670410Y-73776794D01*
X144579085Y-73829521D01*
X144504521Y-73904085D01*
X144451794Y-73995410D01*
X144451793Y-73995413D01*
X144424500Y-74097273D01*
X143650500Y-74097273D01*
X143623207Y-73995413D01*
X143570480Y-73904087D01*
X143495913Y-73829520D01*
X143404587Y-73776793D01*
X143302727Y-73749500D01*
X143197273Y-73749500D01*
X143095413Y-73776793D01*
X143095410Y-73776794D01*
X143004085Y-73829521D01*
X142929521Y-73904085D01*
X142876794Y-73995410D01*
X142876793Y-73995413D01*
X142849500Y-74097273D01*
X142075500Y-74097273D01*
X142048207Y-73995413D01*
X141995480Y-73904087D01*
X141920913Y-73829520D01*
X141829587Y-73776793D01*
X141727727Y-73749500D01*
X141622273Y-73749500D01*
X141520413Y-73776793D01*
X141520410Y-73776794D01*
X141429085Y-73829521D01*
X141354521Y-73904085D01*
X141301794Y-73995410D01*
X141301793Y-73995413D01*
X141274500Y-74097273D01*
X136084051Y-74097273D01*
X136165108Y-74050475D01*
X136235021Y-73980562D01*
X136284456Y-73894938D01*
X136310046Y-73799435D01*
X136310046Y-73700565D01*
X136284456Y-73605062D01*
X136235021Y-73519438D01*
X136165108Y-73449525D01*
X136079484Y-73400090D01*
X135983981Y-73374500D01*
X135885111Y-73374500D01*
X135789608Y-73400090D01*
X135789606Y-73400091D01*
X135789605Y-73400091D01*
X135703982Y-73449526D01*
X135634072Y-73519436D01*
X135584637Y-73605059D01*
X135584637Y-73605060D01*
X135584636Y-73605062D01*
X135559046Y-73700565D01*
X134055500Y-73700565D01*
X134029910Y-73605062D01*
X133980475Y-73519438D01*
X133910562Y-73449525D01*
X133824938Y-73400090D01*
X133729435Y-73374500D01*
X133630565Y-73374500D01*
X133535062Y-73400090D01*
X133535060Y-73400091D01*
X133535059Y-73400091D01*
X133449436Y-73449526D01*
X133379526Y-73519436D01*
X133330091Y-73605059D01*
X133330091Y-73605060D01*
X133330090Y-73605062D01*
X133304500Y-73700565D01*
X98000500Y-73700565D01*
X98000500Y-73086526D01*
X123321517Y-73086526D01*
X123321517Y-73185396D01*
X123347107Y-73280899D01*
X123396542Y-73366523D01*
X123466455Y-73436436D01*
X123552079Y-73485871D01*
X123647582Y-73511461D01*
X123647584Y-73511461D01*
X123746449Y-73511461D01*
X123746452Y-73511461D01*
X123841955Y-73485871D01*
X123927579Y-73436436D01*
X123997492Y-73366523D01*
X124046927Y-73280899D01*
X124072517Y-73185396D01*
X124072517Y-73086526D01*
X124046927Y-72991023D01*
X123997492Y-72905399D01*
X123927579Y-72835486D01*
X123841955Y-72786051D01*
X123746452Y-72760461D01*
X123647582Y-72760461D01*
X123552079Y-72786051D01*
X123552077Y-72786052D01*
X123552076Y-72786052D01*
X123466453Y-72835487D01*
X123396543Y-72905397D01*
X123347108Y-72991020D01*
X123347108Y-72991021D01*
X123347107Y-72991023D01*
X123321517Y-73086526D01*
X98000500Y-73086526D01*
X98000500Y-72593215D01*
X129742150Y-72593215D01*
X129742150Y-72692085D01*
X129767740Y-72787588D01*
X129817175Y-72873212D01*
X129887088Y-72943125D01*
X129972712Y-72992560D01*
X130068215Y-73018150D01*
X130068217Y-73018150D01*
X130167082Y-73018150D01*
X130167085Y-73018150D01*
X130262588Y-72992560D01*
X130348212Y-72943125D01*
X130418125Y-72873212D01*
X130467560Y-72787588D01*
X130493150Y-72692085D01*
X130493150Y-72593215D01*
X131549500Y-72593215D01*
X131549500Y-72692085D01*
X131575090Y-72787588D01*
X131624525Y-72873212D01*
X131694438Y-72943125D01*
X131780062Y-72992560D01*
X131875565Y-73018150D01*
X131875567Y-73018150D01*
X131974432Y-73018150D01*
X131974435Y-73018150D01*
X132069938Y-72992560D01*
X132155562Y-72943125D01*
X132225475Y-72873212D01*
X132274910Y-72787588D01*
X132300500Y-72692085D01*
X132300500Y-72593215D01*
X132274910Y-72497712D01*
X132225475Y-72412088D01*
X132155562Y-72342175D01*
X132069938Y-72292740D01*
X131974435Y-72267150D01*
X131875565Y-72267150D01*
X131780062Y-72292740D01*
X131780060Y-72292741D01*
X131780059Y-72292741D01*
X131694436Y-72342176D01*
X131624526Y-72412086D01*
X131575091Y-72497709D01*
X131575091Y-72497710D01*
X131575090Y-72497712D01*
X131549500Y-72593215D01*
X130493150Y-72593215D01*
X130467560Y-72497712D01*
X130418125Y-72412088D01*
X130348212Y-72342175D01*
X130262588Y-72292740D01*
X130167085Y-72267150D01*
X130068215Y-72267150D01*
X129972712Y-72292740D01*
X129972710Y-72292741D01*
X129972709Y-72292741D01*
X129887086Y-72342176D01*
X129817176Y-72412086D01*
X129767741Y-72497709D01*
X129767741Y-72497710D01*
X129767740Y-72497712D01*
X129742150Y-72593215D01*
X98000500Y-72593215D01*
X98000500Y-72261500D01*
X133299071Y-72261500D01*
X133299071Y-72360370D01*
X133324661Y-72455873D01*
X133374096Y-72541497D01*
X133444009Y-72611410D01*
X133529633Y-72660845D01*
X133625136Y-72686435D01*
X133625138Y-72686435D01*
X133724003Y-72686435D01*
X133724006Y-72686435D01*
X133819509Y-72660845D01*
X133905133Y-72611410D01*
X133975046Y-72541497D01*
X134024481Y-72455873D01*
X134050071Y-72360370D01*
X134050071Y-72261500D01*
X134047141Y-72250565D01*
X135554500Y-72250565D01*
X135554500Y-72349435D01*
X135580090Y-72444938D01*
X135629525Y-72530562D01*
X135699438Y-72600475D01*
X135785062Y-72649910D01*
X135880565Y-72675500D01*
X135880567Y-72675500D01*
X135979432Y-72675500D01*
X135979435Y-72675500D01*
X136074938Y-72649910D01*
X136079505Y-72647273D01*
X151474500Y-72647273D01*
X151474500Y-72752727D01*
X151501793Y-72854587D01*
X151554520Y-72945913D01*
X151629087Y-73020480D01*
X151720413Y-73073207D01*
X151822273Y-73100500D01*
X151822275Y-73100500D01*
X151927725Y-73100500D01*
X151927727Y-73100500D01*
X152029587Y-73073207D01*
X152120913Y-73020480D01*
X152195480Y-72945913D01*
X152248207Y-72854587D01*
X152275500Y-72752727D01*
X152275500Y-72647273D01*
X152248207Y-72545413D01*
X152195480Y-72454087D01*
X152120913Y-72379520D01*
X152029587Y-72326793D01*
X151927727Y-72299500D01*
X151822273Y-72299500D01*
X151720413Y-72326793D01*
X151720410Y-72326794D01*
X151629085Y-72379521D01*
X151554521Y-72454085D01*
X151501794Y-72545410D01*
X151501793Y-72545413D01*
X151474500Y-72647273D01*
X136079505Y-72647273D01*
X136160562Y-72600475D01*
X136230475Y-72530562D01*
X136279910Y-72444938D01*
X136305500Y-72349435D01*
X136305500Y-72250565D01*
X136279910Y-72155062D01*
X136230475Y-72069438D01*
X136160562Y-71999525D01*
X136074938Y-71950090D01*
X135979435Y-71924500D01*
X135880565Y-71924500D01*
X135785062Y-71950090D01*
X135785060Y-71950091D01*
X135785059Y-71950091D01*
X135699436Y-71999526D01*
X135629526Y-72069436D01*
X135580091Y-72155059D01*
X135580091Y-72155060D01*
X135580090Y-72155062D01*
X135554500Y-72250565D01*
X134047141Y-72250565D01*
X134024481Y-72165997D01*
X133975046Y-72080373D01*
X133905133Y-72010460D01*
X133819509Y-71961025D01*
X133724006Y-71935435D01*
X133625136Y-71935435D01*
X133529633Y-71961025D01*
X133529631Y-71961026D01*
X133529630Y-71961026D01*
X133444007Y-72010461D01*
X133374097Y-72080371D01*
X133324662Y-72165994D01*
X133324662Y-72165995D01*
X133324661Y-72165997D01*
X133299071Y-72261500D01*
X98000500Y-72261500D01*
X98000500Y-71187920D01*
X123309308Y-71187920D01*
X123309308Y-71286790D01*
X123334898Y-71382293D01*
X123384333Y-71467917D01*
X123454246Y-71537830D01*
X123539870Y-71587265D01*
X123635373Y-71612855D01*
X123635375Y-71612855D01*
X123734240Y-71612855D01*
X123734243Y-71612855D01*
X123829746Y-71587265D01*
X123915370Y-71537830D01*
X123985283Y-71467917D01*
X124034718Y-71382293D01*
X124060308Y-71286790D01*
X124060308Y-71225565D01*
X133299500Y-71225565D01*
X133299500Y-71324435D01*
X133325090Y-71419938D01*
X133374525Y-71505562D01*
X133444438Y-71575475D01*
X133530062Y-71624910D01*
X133625565Y-71650500D01*
X133625567Y-71650500D01*
X133724432Y-71650500D01*
X133724435Y-71650500D01*
X133819938Y-71624910D01*
X133905562Y-71575475D01*
X133975475Y-71505562D01*
X134024910Y-71419938D01*
X134050500Y-71324435D01*
X134050500Y-71225565D01*
X135549500Y-71225565D01*
X135549500Y-71324435D01*
X135575090Y-71419938D01*
X135624525Y-71505562D01*
X135694438Y-71575475D01*
X135780062Y-71624910D01*
X135875565Y-71650500D01*
X135875567Y-71650500D01*
X135974432Y-71650500D01*
X135974435Y-71650500D01*
X136069938Y-71624910D01*
X136155562Y-71575475D01*
X136225475Y-71505562D01*
X136274910Y-71419938D01*
X136300500Y-71324435D01*
X136300500Y-71225565D01*
X136274910Y-71130062D01*
X136225475Y-71044438D01*
X136155562Y-70974525D01*
X136069938Y-70925090D01*
X135974435Y-70899500D01*
X135875565Y-70899500D01*
X135780062Y-70925090D01*
X135780060Y-70925091D01*
X135780059Y-70925091D01*
X135694436Y-70974526D01*
X135624526Y-71044436D01*
X135575091Y-71130059D01*
X135575091Y-71130060D01*
X135575090Y-71130062D01*
X135549500Y-71225565D01*
X134050500Y-71225565D01*
X134024910Y-71130062D01*
X133975475Y-71044438D01*
X133905562Y-70974525D01*
X133819938Y-70925090D01*
X133724435Y-70899500D01*
X133625565Y-70899500D01*
X133530062Y-70925090D01*
X133530060Y-70925091D01*
X133530059Y-70925091D01*
X133444436Y-70974526D01*
X133374526Y-71044436D01*
X133325091Y-71130059D01*
X133325091Y-71130060D01*
X133325090Y-71130062D01*
X133299500Y-71225565D01*
X124060308Y-71225565D01*
X124060308Y-71187920D01*
X124034718Y-71092417D01*
X123985283Y-71006793D01*
X123915370Y-70936880D01*
X123829746Y-70887445D01*
X123734243Y-70861855D01*
X123635373Y-70861855D01*
X123539870Y-70887445D01*
X123539868Y-70887446D01*
X123539867Y-70887446D01*
X123454244Y-70936881D01*
X123384334Y-71006791D01*
X123334899Y-71092414D01*
X123334899Y-71092415D01*
X123334898Y-71092417D01*
X123309308Y-71187920D01*
X98000500Y-71187920D01*
X98000500Y-70425565D01*
X122155090Y-70425565D01*
X122155090Y-70524435D01*
X122180680Y-70619938D01*
X122230115Y-70705562D01*
X122300028Y-70775475D01*
X122385652Y-70824910D01*
X122481155Y-70850500D01*
X122481157Y-70850500D01*
X122580022Y-70850500D01*
X122580025Y-70850500D01*
X122675528Y-70824910D01*
X122761152Y-70775475D01*
X122831065Y-70705562D01*
X122880500Y-70619938D01*
X122906090Y-70524435D01*
X122906090Y-70449247D01*
X124595263Y-70449247D01*
X124595263Y-70548117D01*
X124620853Y-70643620D01*
X124670288Y-70729244D01*
X124740201Y-70799157D01*
X124825825Y-70848592D01*
X124921328Y-70874182D01*
X124921330Y-70874182D01*
X125020195Y-70874182D01*
X125020198Y-70874182D01*
X125115701Y-70848592D01*
X125201325Y-70799157D01*
X125271238Y-70729244D01*
X125320673Y-70643620D01*
X125346263Y-70548117D01*
X125346263Y-70449247D01*
X125320673Y-70353744D01*
X125271238Y-70268120D01*
X125246333Y-70243215D01*
X136906850Y-70243215D01*
X136906850Y-70342085D01*
X136932440Y-70437588D01*
X136981875Y-70523212D01*
X137051788Y-70593125D01*
X137137412Y-70642560D01*
X137232915Y-70668150D01*
X137232917Y-70668150D01*
X137331782Y-70668150D01*
X137331785Y-70668150D01*
X137427288Y-70642560D01*
X137512912Y-70593125D01*
X137582825Y-70523212D01*
X137632260Y-70437588D01*
X137657850Y-70342085D01*
X137657850Y-70243215D01*
X137632260Y-70147712D01*
X137582825Y-70062088D01*
X137512912Y-69992175D01*
X137427288Y-69942740D01*
X137331785Y-69917150D01*
X137232915Y-69917150D01*
X137137412Y-69942740D01*
X137137410Y-69942741D01*
X137137409Y-69942741D01*
X137051786Y-69992176D01*
X136981876Y-70062086D01*
X136932441Y-70147709D01*
X136932441Y-70147710D01*
X136932440Y-70147712D01*
X136906850Y-70243215D01*
X125246333Y-70243215D01*
X125201325Y-70198207D01*
X125115701Y-70148772D01*
X125020198Y-70123182D01*
X124921328Y-70123182D01*
X124825825Y-70148772D01*
X124825823Y-70148773D01*
X124825822Y-70148773D01*
X124740199Y-70198208D01*
X124670289Y-70268118D01*
X124620854Y-70353741D01*
X124620854Y-70353742D01*
X124620853Y-70353744D01*
X124595263Y-70449247D01*
X122906090Y-70449247D01*
X122906090Y-70425565D01*
X122880500Y-70330062D01*
X122831065Y-70244438D01*
X122761152Y-70174525D01*
X122675528Y-70125090D01*
X122580025Y-70099500D01*
X122481155Y-70099500D01*
X122385652Y-70125090D01*
X122385650Y-70125091D01*
X122385649Y-70125091D01*
X122300026Y-70174526D01*
X122230116Y-70244436D01*
X122180681Y-70330059D01*
X122180681Y-70330060D01*
X122180680Y-70330062D01*
X122155090Y-70425565D01*
X98000500Y-70425565D01*
X98000500Y-69897273D01*
X144449500Y-69897273D01*
X144449500Y-70002727D01*
X144476793Y-70104587D01*
X144529520Y-70195913D01*
X144604087Y-70270480D01*
X144695413Y-70323207D01*
X144797273Y-70350500D01*
X144797275Y-70350500D01*
X144902725Y-70350500D01*
X144902727Y-70350500D01*
X145004587Y-70323207D01*
X145095913Y-70270480D01*
X145170480Y-70195913D01*
X145223207Y-70104587D01*
X145250500Y-70002727D01*
X145250500Y-69897273D01*
X145223207Y-69795413D01*
X145170480Y-69704087D01*
X145095913Y-69629520D01*
X145004587Y-69576793D01*
X144902727Y-69549500D01*
X144797273Y-69549500D01*
X144695413Y-69576793D01*
X144695410Y-69576794D01*
X144604085Y-69629521D01*
X144529521Y-69704085D01*
X144476794Y-69795410D01*
X144476793Y-69795413D01*
X144449500Y-69897273D01*
X98000500Y-69897273D01*
X98000500Y-67870179D01*
X136105965Y-67870179D01*
X136105965Y-67969049D01*
X136131555Y-68064552D01*
X136180990Y-68150176D01*
X136250903Y-68220089D01*
X136336527Y-68269524D01*
X136432030Y-68295114D01*
X136432032Y-68295114D01*
X136530897Y-68295114D01*
X136530900Y-68295114D01*
X136626403Y-68269524D01*
X136712027Y-68220089D01*
X136781940Y-68150176D01*
X136831375Y-68064552D01*
X136856965Y-67969049D01*
X136856965Y-67870179D01*
X136831375Y-67774676D01*
X136781940Y-67689052D01*
X136712027Y-67619139D01*
X136626403Y-67569704D01*
X136530900Y-67544114D01*
X136432030Y-67544114D01*
X136336527Y-67569704D01*
X136336525Y-67569705D01*
X136336524Y-67569705D01*
X136250901Y-67619140D01*
X136180991Y-67689050D01*
X136131556Y-67774673D01*
X136131556Y-67774674D01*
X136131555Y-67774676D01*
X136105965Y-67870179D01*
X98000500Y-67870179D01*
X98000500Y-67147273D01*
X124824500Y-67147273D01*
X124824500Y-67252727D01*
X124851793Y-67354587D01*
X124904520Y-67445913D01*
X124979087Y-67520480D01*
X125070413Y-67573207D01*
X125172273Y-67600500D01*
X125172275Y-67600500D01*
X125277725Y-67600500D01*
X125277727Y-67600500D01*
X125379587Y-67573207D01*
X125470913Y-67520480D01*
X125545480Y-67445913D01*
X125598207Y-67354587D01*
X125625500Y-67252727D01*
X125625500Y-67147273D01*
X125598207Y-67045413D01*
X125545480Y-66954087D01*
X125470913Y-66879520D01*
X125379587Y-66826793D01*
X125277727Y-66799500D01*
X125172273Y-66799500D01*
X125070413Y-66826793D01*
X125070410Y-66826794D01*
X124979085Y-66879521D01*
X124904521Y-66954085D01*
X124851794Y-67045410D01*
X124851793Y-67045413D01*
X124824500Y-67147273D01*
X98000500Y-67147273D01*
X98000500Y-66136465D01*
X122637741Y-66136465D01*
X122637741Y-66241919D01*
X122665034Y-66343779D01*
X122717761Y-66435105D01*
X122792328Y-66509672D01*
X122883654Y-66562399D01*
X122985514Y-66589692D01*
X122985516Y-66589692D01*
X123090966Y-66589692D01*
X123090968Y-66589692D01*
X123192828Y-66562399D01*
X123284154Y-66509672D01*
X123358721Y-66435105D01*
X123411448Y-66343779D01*
X123438741Y-66241919D01*
X123438741Y-66136465D01*
X123411448Y-66034605D01*
X123358721Y-65943279D01*
X123284154Y-65868712D01*
X123192828Y-65815985D01*
X123090968Y-65788692D01*
X122985514Y-65788692D01*
X122883654Y-65815985D01*
X122883651Y-65815986D01*
X122792326Y-65868713D01*
X122717762Y-65943277D01*
X122665035Y-66034602D01*
X122665034Y-66034605D01*
X122637741Y-66136465D01*
X98000500Y-66136465D01*
X98000500Y-64853730D01*
X123098446Y-64853730D01*
X123098446Y-64952600D01*
X123124036Y-65048103D01*
X123173471Y-65133727D01*
X123243384Y-65203640D01*
X123329008Y-65253075D01*
X123424511Y-65278665D01*
X123424513Y-65278665D01*
X123523378Y-65278665D01*
X123523381Y-65278665D01*
X123618884Y-65253075D01*
X123704508Y-65203640D01*
X123774421Y-65133727D01*
X123823856Y-65048103D01*
X123849446Y-64952600D01*
X123849446Y-64853730D01*
X123823856Y-64758227D01*
X123774421Y-64672603D01*
X123704508Y-64602690D01*
X123618884Y-64553255D01*
X123523381Y-64527665D01*
X123424511Y-64527665D01*
X123329008Y-64553255D01*
X123329006Y-64553256D01*
X123329005Y-64553256D01*
X123243382Y-64602691D01*
X123173472Y-64672601D01*
X123124037Y-64758224D01*
X123124037Y-64758225D01*
X123124036Y-64758227D01*
X123098446Y-64853730D01*
X98000500Y-64853730D01*
X98000500Y-64125565D01*
X124149500Y-64125565D01*
X124149500Y-64224435D01*
X124175090Y-64319938D01*
X124224525Y-64405562D01*
X124294438Y-64475475D01*
X124380062Y-64524910D01*
X124475565Y-64550500D01*
X124475567Y-64550500D01*
X124574432Y-64550500D01*
X124574435Y-64550500D01*
X124669938Y-64524910D01*
X124755562Y-64475475D01*
X124825475Y-64405562D01*
X124874910Y-64319938D01*
X124900500Y-64224435D01*
X124900500Y-64125565D01*
X124899618Y-64122273D01*
X126249500Y-64122273D01*
X126249500Y-64227727D01*
X126276793Y-64329587D01*
X126329520Y-64420913D01*
X126404087Y-64495480D01*
X126495413Y-64548207D01*
X126597273Y-64575500D01*
X126597275Y-64575500D01*
X126702725Y-64575500D01*
X126702727Y-64575500D01*
X126804587Y-64548207D01*
X126895913Y-64495480D01*
X126970480Y-64420913D01*
X127023207Y-64329587D01*
X127050500Y-64227727D01*
X127050500Y-64122273D01*
X127023207Y-64020413D01*
X126970480Y-63929087D01*
X126895913Y-63854520D01*
X126804587Y-63801793D01*
X126702727Y-63774500D01*
X126597273Y-63774500D01*
X126495413Y-63801793D01*
X126495410Y-63801794D01*
X126404085Y-63854521D01*
X126329521Y-63929085D01*
X126276794Y-64020410D01*
X126276793Y-64020413D01*
X126249500Y-64122273D01*
X124899618Y-64122273D01*
X124874910Y-64030062D01*
X124825475Y-63944438D01*
X124755562Y-63874525D01*
X124669938Y-63825090D01*
X124574435Y-63799500D01*
X124475565Y-63799500D01*
X124380062Y-63825090D01*
X124380060Y-63825091D01*
X124380059Y-63825091D01*
X124294436Y-63874526D01*
X124224526Y-63944436D01*
X124175091Y-64030059D01*
X124175091Y-64030060D01*
X124175090Y-64030062D01*
X124149500Y-64125565D01*
X98000500Y-64125565D01*
X98000500Y-63579017D01*
X129794366Y-63579017D01*
X129794366Y-63684470D01*
X129821659Y-63786330D01*
X129821660Y-63786333D01*
X129835788Y-63810803D01*
X129874386Y-63877657D01*
X129948953Y-63952224D01*
X130040279Y-64004951D01*
X130142139Y-64032244D01*
X130142141Y-64032244D01*
X130247591Y-64032244D01*
X130247593Y-64032244D01*
X130349453Y-64004951D01*
X130440779Y-63952224D01*
X130515346Y-63877657D01*
X130568073Y-63786331D01*
X130595366Y-63684471D01*
X130595366Y-63579017D01*
X130568073Y-63477157D01*
X130515346Y-63385831D01*
X130440779Y-63311264D01*
X130349453Y-63258537D01*
X130247593Y-63231244D01*
X130142139Y-63231244D01*
X130040279Y-63258537D01*
X130040276Y-63258538D01*
X129948951Y-63311265D01*
X129874387Y-63385829D01*
X129821660Y-63477154D01*
X129821659Y-63477157D01*
X129794366Y-63579017D01*
X98000500Y-63579017D01*
X98000500Y-62575560D01*
X124068393Y-62575560D01*
X124068393Y-62681013D01*
X124095686Y-62782873D01*
X124095687Y-62782876D01*
X124101790Y-62793447D01*
X124148413Y-62874200D01*
X124222980Y-62948767D01*
X124314306Y-63001494D01*
X124416166Y-63028787D01*
X124416168Y-63028787D01*
X124521618Y-63028787D01*
X124521620Y-63028787D01*
X124623480Y-63001494D01*
X124714806Y-62948767D01*
X124768266Y-62895307D01*
X137589421Y-62895307D01*
X137589421Y-63000761D01*
X137616714Y-63102621D01*
X137669441Y-63193947D01*
X137744008Y-63268514D01*
X137835334Y-63321241D01*
X137937194Y-63348534D01*
X137937196Y-63348534D01*
X138042646Y-63348534D01*
X138042648Y-63348534D01*
X138144508Y-63321241D01*
X138235834Y-63268514D01*
X138310401Y-63193947D01*
X138363128Y-63102621D01*
X138390421Y-63000761D01*
X138390421Y-62895307D01*
X138363128Y-62793447D01*
X138310401Y-62702121D01*
X138235834Y-62627554D01*
X138144508Y-62574827D01*
X138042648Y-62547534D01*
X137937194Y-62547534D01*
X137835334Y-62574827D01*
X137835331Y-62574828D01*
X137744006Y-62627555D01*
X137669442Y-62702119D01*
X137616715Y-62793444D01*
X137616714Y-62793447D01*
X137589421Y-62895307D01*
X124768266Y-62895307D01*
X124789373Y-62874200D01*
X124842100Y-62782874D01*
X124869393Y-62681014D01*
X124869393Y-62575560D01*
X124842100Y-62473700D01*
X124789373Y-62382374D01*
X124714806Y-62307807D01*
X124623480Y-62255080D01*
X124521620Y-62227787D01*
X124416166Y-62227787D01*
X124314306Y-62255080D01*
X124314303Y-62255081D01*
X124222978Y-62307808D01*
X124148414Y-62382372D01*
X124095687Y-62473697D01*
X124095686Y-62473700D01*
X124068393Y-62575560D01*
X98000500Y-62575560D01*
X98000500Y-61547273D01*
X128124500Y-61547273D01*
X128124500Y-61652727D01*
X128151793Y-61754587D01*
X128204520Y-61845913D01*
X128279087Y-61920480D01*
X128370413Y-61973207D01*
X128472273Y-62000500D01*
X128472275Y-62000500D01*
X128577725Y-62000500D01*
X128577727Y-62000500D01*
X128679587Y-61973207D01*
X128770913Y-61920480D01*
X128845480Y-61845913D01*
X128898207Y-61754587D01*
X128925500Y-61652727D01*
X128925500Y-61547273D01*
X128898207Y-61445413D01*
X128845480Y-61354087D01*
X128770913Y-61279520D01*
X128679587Y-61226793D01*
X128577727Y-61199500D01*
X128472273Y-61199500D01*
X128370413Y-61226793D01*
X128370410Y-61226794D01*
X128279085Y-61279521D01*
X128204521Y-61354085D01*
X128151794Y-61445410D01*
X128151793Y-61445413D01*
X128124500Y-61547273D01*
X98000500Y-61547273D01*
X98000500Y-61093215D01*
X117874500Y-61093215D01*
X117874500Y-61192085D01*
X117900090Y-61287588D01*
X117949525Y-61373212D01*
X118019438Y-61443125D01*
X118105062Y-61492560D01*
X118200565Y-61518150D01*
X118200567Y-61518150D01*
X118299432Y-61518150D01*
X118299435Y-61518150D01*
X118394938Y-61492560D01*
X118480562Y-61443125D01*
X118550475Y-61373212D01*
X118599910Y-61287588D01*
X118625500Y-61192085D01*
X118625500Y-61093215D01*
X118599910Y-60997712D01*
X118550475Y-60912088D01*
X118518010Y-60879623D01*
X123874500Y-60879623D01*
X123874500Y-60985076D01*
X123901793Y-61086936D01*
X123901794Y-61086939D01*
X123905419Y-61093217D01*
X123954520Y-61178263D01*
X124029087Y-61252830D01*
X124120413Y-61305557D01*
X124222273Y-61332850D01*
X124222275Y-61332850D01*
X124327725Y-61332850D01*
X124327727Y-61332850D01*
X124429587Y-61305557D01*
X124520913Y-61252830D01*
X124595480Y-61178263D01*
X124648207Y-61086937D01*
X124675500Y-60985077D01*
X124675500Y-60879623D01*
X124648207Y-60777763D01*
X124595480Y-60686437D01*
X124520913Y-60611870D01*
X124429587Y-60559143D01*
X124327727Y-60531850D01*
X124222273Y-60531850D01*
X124120413Y-60559143D01*
X124120410Y-60559144D01*
X124029085Y-60611871D01*
X123954521Y-60686435D01*
X123901794Y-60777760D01*
X123901793Y-60777763D01*
X123874500Y-60879623D01*
X118518010Y-60879623D01*
X118480562Y-60842175D01*
X118394938Y-60792740D01*
X118299435Y-60767150D01*
X118200565Y-60767150D01*
X118105062Y-60792740D01*
X118105060Y-60792741D01*
X118105059Y-60792741D01*
X118019436Y-60842176D01*
X117949526Y-60912086D01*
X117900091Y-60997709D01*
X117900091Y-60997710D01*
X117900090Y-60997712D01*
X117874500Y-61093215D01*
X98000500Y-61093215D01*
X98000500Y-60500565D01*
X130124500Y-60500565D01*
X130124500Y-60599435D01*
X130150090Y-60694938D01*
X130199525Y-60780562D01*
X130269438Y-60850475D01*
X130355062Y-60899910D01*
X130450565Y-60925500D01*
X130450567Y-60925500D01*
X130549432Y-60925500D01*
X130549435Y-60925500D01*
X130644938Y-60899910D01*
X130730562Y-60850475D01*
X130800475Y-60780562D01*
X130849910Y-60694938D01*
X130875500Y-60599435D01*
X130875500Y-60500565D01*
X130849910Y-60405062D01*
X130800475Y-60319438D01*
X130730562Y-60249525D01*
X130644938Y-60200090D01*
X130549435Y-60174500D01*
X130450565Y-60174500D01*
X130355062Y-60200090D01*
X130355060Y-60200091D01*
X130355059Y-60200091D01*
X130269436Y-60249526D01*
X130199526Y-60319436D01*
X130150091Y-60405059D01*
X130150091Y-60405060D01*
X130150090Y-60405062D01*
X130124500Y-60500565D01*
X98000500Y-60500565D01*
X98000500Y-60000565D01*
X105999500Y-60000565D01*
X105999500Y-60099435D01*
X106025090Y-60194938D01*
X106025091Y-60194939D01*
X106025091Y-60194940D01*
X106028065Y-60200091D01*
X106074525Y-60280562D01*
X106144438Y-60350475D01*
X106230062Y-60399910D01*
X106325565Y-60425500D01*
X106325567Y-60425500D01*
X106424432Y-60425500D01*
X106424435Y-60425500D01*
X106519938Y-60399910D01*
X106605562Y-60350475D01*
X106675475Y-60280562D01*
X106724910Y-60194938D01*
X106750500Y-60099435D01*
X106750500Y-60000565D01*
X106724910Y-59905062D01*
X106675475Y-59819438D01*
X106605562Y-59749525D01*
X106519938Y-59700090D01*
X106424435Y-59674500D01*
X106325565Y-59674500D01*
X106230062Y-59700090D01*
X106230060Y-59700091D01*
X106230059Y-59700091D01*
X106144436Y-59749526D01*
X106074526Y-59819436D01*
X106025091Y-59905059D01*
X106025091Y-59905060D01*
X106025090Y-59905062D01*
X105999500Y-60000565D01*
X98000500Y-60000565D01*
X98000500Y-59547273D01*
X127025127Y-59547273D01*
X127025127Y-59652727D01*
X127052420Y-59754587D01*
X127105147Y-59845913D01*
X127179714Y-59920480D01*
X127271040Y-59973207D01*
X127372900Y-60000500D01*
X127372902Y-60000500D01*
X127478352Y-60000500D01*
X127478354Y-60000500D01*
X127580214Y-59973207D01*
X127671540Y-59920480D01*
X127746107Y-59845913D01*
X127798834Y-59754587D01*
X127826127Y-59652727D01*
X127826127Y-59622273D01*
X138599500Y-59622273D01*
X138599500Y-59727727D01*
X138626793Y-59829587D01*
X138679520Y-59920913D01*
X138754087Y-59995480D01*
X138845413Y-60048207D01*
X138947273Y-60075500D01*
X138947275Y-60075500D01*
X139052725Y-60075500D01*
X139052727Y-60075500D01*
X139154587Y-60048207D01*
X139245913Y-59995480D01*
X139320480Y-59920913D01*
X139373207Y-59829587D01*
X139400500Y-59727727D01*
X139400500Y-59622273D01*
X139373207Y-59520413D01*
X139320480Y-59429087D01*
X139245913Y-59354520D01*
X139154587Y-59301793D01*
X139052727Y-59274500D01*
X138947273Y-59274500D01*
X138845413Y-59301793D01*
X138845410Y-59301794D01*
X138754085Y-59354521D01*
X138679521Y-59429085D01*
X138626794Y-59520410D01*
X138626793Y-59520413D01*
X138599500Y-59622273D01*
X127826127Y-59622273D01*
X127826127Y-59547273D01*
X127798834Y-59445413D01*
X127746107Y-59354087D01*
X127671540Y-59279520D01*
X127580214Y-59226793D01*
X127478354Y-59199500D01*
X127372900Y-59199500D01*
X127271040Y-59226793D01*
X127271037Y-59226794D01*
X127179712Y-59279521D01*
X127105148Y-59354085D01*
X127052421Y-59445410D01*
X127052420Y-59445413D01*
X127025127Y-59547273D01*
X98000500Y-59547273D01*
X98000500Y-58197273D01*
X138349500Y-58197273D01*
X138349500Y-58302727D01*
X138376793Y-58404587D01*
X138429520Y-58495913D01*
X138504087Y-58570480D01*
X138595413Y-58623207D01*
X138697273Y-58650500D01*
X138697275Y-58650500D01*
X138802725Y-58650500D01*
X138802727Y-58650500D01*
X138904587Y-58623207D01*
X138995913Y-58570480D01*
X139070480Y-58495913D01*
X139123207Y-58404587D01*
X139150500Y-58302727D01*
X139150500Y-58197273D01*
X139123207Y-58095413D01*
X139070480Y-58004087D01*
X138995913Y-57929520D01*
X138904587Y-57876793D01*
X138802727Y-57849500D01*
X138697273Y-57849500D01*
X138595413Y-57876793D01*
X138595410Y-57876794D01*
X138504085Y-57929521D01*
X138429521Y-58004085D01*
X138376794Y-58095410D01*
X138376793Y-58095413D01*
X138349500Y-58197273D01*
X98000500Y-58197273D01*
X98000500Y-57347273D01*
X106549500Y-57347273D01*
X106549500Y-57452727D01*
X106576793Y-57554587D01*
X106629520Y-57645913D01*
X106704087Y-57720480D01*
X106795413Y-57773207D01*
X106897273Y-57800500D01*
X106897275Y-57800500D01*
X107002725Y-57800500D01*
X107002727Y-57800500D01*
X107104587Y-57773207D01*
X107195913Y-57720480D01*
X107270480Y-57645913D01*
X107323207Y-57554587D01*
X107342376Y-57483045D01*
X116163653Y-57483045D01*
X116163653Y-57581915D01*
X116189243Y-57677418D01*
X116238678Y-57763042D01*
X116308591Y-57832955D01*
X116394215Y-57882390D01*
X116489718Y-57907980D01*
X116489720Y-57907980D01*
X116588585Y-57907980D01*
X116588588Y-57907980D01*
X116684091Y-57882390D01*
X116769715Y-57832955D01*
X116839628Y-57763042D01*
X116889063Y-57677418D01*
X116914653Y-57581915D01*
X116914653Y-57500565D01*
X118349500Y-57500565D01*
X118349500Y-57599435D01*
X118375090Y-57694938D01*
X118424525Y-57780562D01*
X118494438Y-57850475D01*
X118580062Y-57899910D01*
X118675565Y-57925500D01*
X118675567Y-57925500D01*
X118774432Y-57925500D01*
X118774435Y-57925500D01*
X118869938Y-57899910D01*
X118955562Y-57850475D01*
X119025475Y-57780562D01*
X119074910Y-57694938D01*
X119100500Y-57599435D01*
X119100500Y-57500565D01*
X119074910Y-57405062D01*
X119025475Y-57319438D01*
X118955562Y-57249525D01*
X118869938Y-57200090D01*
X118774435Y-57174500D01*
X118675565Y-57174500D01*
X118580062Y-57200090D01*
X118580060Y-57200091D01*
X118580059Y-57200091D01*
X118494436Y-57249526D01*
X118424526Y-57319436D01*
X118375091Y-57405059D01*
X118375091Y-57405060D01*
X118375090Y-57405062D01*
X118349500Y-57500565D01*
X116914653Y-57500565D01*
X116914653Y-57483045D01*
X116889063Y-57387542D01*
X116839628Y-57301918D01*
X116769715Y-57232005D01*
X116684091Y-57182570D01*
X116645662Y-57172273D01*
X130724500Y-57172273D01*
X130724500Y-57277727D01*
X130751793Y-57379587D01*
X130804520Y-57470913D01*
X130879087Y-57545480D01*
X130970413Y-57598207D01*
X131072273Y-57625500D01*
X131072275Y-57625500D01*
X131177725Y-57625500D01*
X131177727Y-57625500D01*
X131279587Y-57598207D01*
X131370913Y-57545480D01*
X131445480Y-57470913D01*
X131498207Y-57379587D01*
X131498755Y-57377540D01*
X143064200Y-57377540D01*
X143064200Y-57524459D01*
X143088359Y-57645914D01*
X143092860Y-57668542D01*
X143103244Y-57693611D01*
X143149078Y-57804266D01*
X143149083Y-57804275D01*
X143230698Y-57926419D01*
X143230701Y-57926423D01*
X143334576Y-58030298D01*
X143334580Y-58030301D01*
X143456724Y-58111916D01*
X143456730Y-58111919D01*
X143456731Y-58111920D01*
X143592458Y-58168140D01*
X143736540Y-58196799D01*
X143736544Y-58196800D01*
X143736545Y-58196800D01*
X143883456Y-58196800D01*
X143883457Y-58196799D01*
X144027542Y-58168140D01*
X144163269Y-58111920D01*
X144285420Y-58030301D01*
X144389301Y-57926420D01*
X144470920Y-57804269D01*
X144527140Y-57668542D01*
X144555800Y-57524455D01*
X144555800Y-57377545D01*
X144527140Y-57233458D01*
X144470920Y-57097731D01*
X144470919Y-57097730D01*
X144470916Y-57097724D01*
X144389301Y-56975580D01*
X144389298Y-56975576D01*
X144285423Y-56871701D01*
X144285419Y-56871698D01*
X144163275Y-56790083D01*
X144163266Y-56790078D01*
X144027544Y-56733861D01*
X144027545Y-56733861D01*
X144027542Y-56733860D01*
X144027538Y-56733859D01*
X144027534Y-56733858D01*
X143883459Y-56705200D01*
X143883455Y-56705200D01*
X143736545Y-56705200D01*
X143736540Y-56705200D01*
X143592465Y-56733858D01*
X143592455Y-56733861D01*
X143456733Y-56790078D01*
X143456724Y-56790083D01*
X143334580Y-56871698D01*
X143334576Y-56871701D01*
X143230701Y-56975576D01*
X143230698Y-56975580D01*
X143149083Y-57097724D01*
X143149078Y-57097733D01*
X143092861Y-57233455D01*
X143092858Y-57233465D01*
X143064200Y-57377540D01*
X131498755Y-57377540D01*
X131525500Y-57277727D01*
X131525500Y-57172273D01*
X131498207Y-57070413D01*
X131445480Y-56979087D01*
X131370913Y-56904520D01*
X131279587Y-56851793D01*
X131177727Y-56824500D01*
X131072273Y-56824500D01*
X130970413Y-56851793D01*
X130970410Y-56851794D01*
X130879085Y-56904521D01*
X130804521Y-56979085D01*
X130751794Y-57070410D01*
X130751793Y-57070413D01*
X130724500Y-57172273D01*
X116645662Y-57172273D01*
X116588588Y-57156980D01*
X116489718Y-57156980D01*
X116394215Y-57182570D01*
X116394213Y-57182571D01*
X116394212Y-57182571D01*
X116308589Y-57232006D01*
X116238679Y-57301916D01*
X116189244Y-57387539D01*
X116189244Y-57387540D01*
X116189243Y-57387542D01*
X116163653Y-57483045D01*
X107342376Y-57483045D01*
X107350500Y-57452727D01*
X107350500Y-57347273D01*
X107323207Y-57245413D01*
X107270480Y-57154087D01*
X107195913Y-57079520D01*
X107104587Y-57026793D01*
X107002727Y-56999500D01*
X106897273Y-56999500D01*
X106795413Y-57026793D01*
X106795410Y-57026794D01*
X106704085Y-57079521D01*
X106629521Y-57154085D01*
X106576794Y-57245410D01*
X106576793Y-57245413D01*
X106549500Y-57347273D01*
X98000500Y-57347273D01*
X98000500Y-56850565D01*
X111624500Y-56850565D01*
X111624500Y-56949435D01*
X111650090Y-57044938D01*
X111699525Y-57130562D01*
X111769438Y-57200475D01*
X111855062Y-57249910D01*
X111950565Y-57275500D01*
X111950567Y-57275500D01*
X112049432Y-57275500D01*
X112049435Y-57275500D01*
X112144938Y-57249910D01*
X112230562Y-57200475D01*
X112300475Y-57130562D01*
X112349910Y-57044938D01*
X112375500Y-56949435D01*
X112375500Y-56850565D01*
X112349910Y-56755062D01*
X112300475Y-56669438D01*
X112230562Y-56599525D01*
X112144938Y-56550090D01*
X112049435Y-56524500D01*
X111950565Y-56524500D01*
X111855062Y-56550090D01*
X111855060Y-56550091D01*
X111855059Y-56550091D01*
X111769436Y-56599526D01*
X111699526Y-56669436D01*
X111650091Y-56755059D01*
X111650091Y-56755060D01*
X111650090Y-56755062D01*
X111624500Y-56850565D01*
X98000500Y-56850565D01*
X98000500Y-55859773D01*
X105512000Y-55859773D01*
X105512000Y-55965227D01*
X105539293Y-56067087D01*
X105592020Y-56158413D01*
X105666587Y-56232980D01*
X105757913Y-56285707D01*
X105859773Y-56313000D01*
X105859775Y-56313000D01*
X105965225Y-56313000D01*
X105965227Y-56313000D01*
X106067087Y-56285707D01*
X106158413Y-56232980D01*
X106232980Y-56158413D01*
X106285707Y-56067087D01*
X106313000Y-55965227D01*
X106313000Y-55859773D01*
X106285707Y-55757913D01*
X106232980Y-55666587D01*
X106188666Y-55622273D01*
X123824500Y-55622273D01*
X123824500Y-55727727D01*
X123851793Y-55829587D01*
X123904520Y-55920913D01*
X123979087Y-55995480D01*
X124070413Y-56048207D01*
X124172273Y-56075500D01*
X124172275Y-56075500D01*
X124277725Y-56075500D01*
X124277727Y-56075500D01*
X124379587Y-56048207D01*
X124470913Y-55995480D01*
X124545480Y-55920913D01*
X124598207Y-55829587D01*
X124625500Y-55727727D01*
X124625500Y-55622273D01*
X125474500Y-55622273D01*
X125474500Y-55727727D01*
X125501793Y-55829587D01*
X125554520Y-55920913D01*
X125629087Y-55995480D01*
X125720413Y-56048207D01*
X125822273Y-56075500D01*
X125822275Y-56075500D01*
X125927725Y-56075500D01*
X125927727Y-56075500D01*
X126029587Y-56048207D01*
X126120913Y-55995480D01*
X126195480Y-55920913D01*
X126248207Y-55829587D01*
X126275500Y-55727727D01*
X126275500Y-55622273D01*
X127074500Y-55622273D01*
X127074500Y-55727727D01*
X127101793Y-55829587D01*
X127154520Y-55920913D01*
X127229087Y-55995480D01*
X127320413Y-56048207D01*
X127422273Y-56075500D01*
X127422275Y-56075500D01*
X127527725Y-56075500D01*
X127527727Y-56075500D01*
X127629587Y-56048207D01*
X127720913Y-55995480D01*
X127769120Y-55947273D01*
X137599500Y-55947273D01*
X137599500Y-56052727D01*
X137621851Y-56136141D01*
X137626793Y-56154586D01*
X137626794Y-56154589D01*
X137632689Y-56164799D01*
X137679520Y-56245913D01*
X137754087Y-56320480D01*
X137845413Y-56373207D01*
X137947273Y-56400500D01*
X137947275Y-56400500D01*
X138052725Y-56400500D01*
X138052727Y-56400500D01*
X138154587Y-56373207D01*
X138174795Y-56361540D01*
X148144200Y-56361540D01*
X148144200Y-56508459D01*
X148172858Y-56652534D01*
X148172861Y-56652544D01*
X148229078Y-56788266D01*
X148229083Y-56788275D01*
X148310698Y-56910419D01*
X148310701Y-56910423D01*
X148414576Y-57014298D01*
X148414580Y-57014301D01*
X148536724Y-57095916D01*
X148536730Y-57095919D01*
X148536731Y-57095920D01*
X148672458Y-57152140D01*
X148784872Y-57174500D01*
X148816540Y-57180799D01*
X148816544Y-57180800D01*
X148816545Y-57180800D01*
X148963456Y-57180800D01*
X148963457Y-57180799D01*
X149107542Y-57152140D01*
X149243269Y-57095920D01*
X149365420Y-57014301D01*
X149469301Y-56910420D01*
X149550920Y-56788269D01*
X149607140Y-56652542D01*
X149635800Y-56508455D01*
X149635800Y-56361545D01*
X149607140Y-56217458D01*
X149550920Y-56081731D01*
X149550919Y-56081730D01*
X149550916Y-56081724D01*
X149469301Y-55959580D01*
X149469298Y-55959576D01*
X149365423Y-55855701D01*
X149365419Y-55855698D01*
X149243275Y-55774083D01*
X149243266Y-55774078D01*
X149107544Y-55717861D01*
X149107545Y-55717861D01*
X149107542Y-55717860D01*
X149107538Y-55717859D01*
X149107534Y-55717858D01*
X148963459Y-55689200D01*
X148963455Y-55689200D01*
X148816545Y-55689200D01*
X148816540Y-55689200D01*
X148672465Y-55717858D01*
X148672455Y-55717861D01*
X148536733Y-55774078D01*
X148536724Y-55774083D01*
X148414580Y-55855698D01*
X148414576Y-55855701D01*
X148310701Y-55959576D01*
X148310698Y-55959580D01*
X148229083Y-56081724D01*
X148229078Y-56081733D01*
X148172861Y-56217455D01*
X148172858Y-56217465D01*
X148144200Y-56361540D01*
X138174795Y-56361540D01*
X138245913Y-56320480D01*
X138320480Y-56245913D01*
X138373207Y-56154587D01*
X138400500Y-56052727D01*
X138400500Y-55947273D01*
X138373207Y-55845413D01*
X138320480Y-55754087D01*
X138245913Y-55679520D01*
X138154587Y-55626793D01*
X138052727Y-55599500D01*
X137947273Y-55599500D01*
X137845413Y-55626793D01*
X137845410Y-55626794D01*
X137754085Y-55679521D01*
X137679521Y-55754085D01*
X137626794Y-55845410D01*
X137626793Y-55845413D01*
X137599500Y-55947273D01*
X127769120Y-55947273D01*
X127795480Y-55920913D01*
X127811504Y-55893156D01*
X127820750Y-55877145D01*
X127833132Y-55855698D01*
X127848207Y-55829587D01*
X127875500Y-55727727D01*
X127875500Y-55622273D01*
X127848207Y-55520413D01*
X127795480Y-55429087D01*
X127720913Y-55354520D01*
X127705359Y-55345540D01*
X143064200Y-55345540D01*
X143064200Y-55492459D01*
X143092858Y-55636534D01*
X143092861Y-55636544D01*
X143149078Y-55772266D01*
X143149083Y-55772275D01*
X143230698Y-55894419D01*
X143230701Y-55894423D01*
X143334576Y-55998298D01*
X143334580Y-55998301D01*
X143456724Y-56079916D01*
X143456730Y-56079919D01*
X143456731Y-56079920D01*
X143592458Y-56136140D01*
X143685195Y-56154586D01*
X143736540Y-56164799D01*
X143736544Y-56164800D01*
X143736545Y-56164800D01*
X143883456Y-56164800D01*
X143883457Y-56164799D01*
X144027542Y-56136140D01*
X144163269Y-56079920D01*
X144285420Y-55998301D01*
X144389301Y-55894420D01*
X144470920Y-55772269D01*
X144527140Y-55636542D01*
X144555800Y-55492455D01*
X144555800Y-55345545D01*
X144527140Y-55201458D01*
X144470920Y-55065731D01*
X144470919Y-55065730D01*
X144470916Y-55065724D01*
X144389301Y-54943580D01*
X144389298Y-54943576D01*
X144285423Y-54839701D01*
X144285419Y-54839698D01*
X144163275Y-54758083D01*
X144163266Y-54758078D01*
X144027544Y-54701861D01*
X144027545Y-54701861D01*
X144027542Y-54701860D01*
X144027538Y-54701859D01*
X144027534Y-54701858D01*
X143883459Y-54673200D01*
X143883455Y-54673200D01*
X143736545Y-54673200D01*
X143736540Y-54673200D01*
X143592465Y-54701858D01*
X143592455Y-54701861D01*
X143456733Y-54758078D01*
X143456724Y-54758083D01*
X143334580Y-54839698D01*
X143334576Y-54839701D01*
X143230701Y-54943576D01*
X143230698Y-54943580D01*
X143149083Y-55065724D01*
X143149078Y-55065733D01*
X143092861Y-55201455D01*
X143092858Y-55201465D01*
X143064200Y-55345540D01*
X127705359Y-55345540D01*
X127634430Y-55304589D01*
X127629589Y-55301794D01*
X127629588Y-55301793D01*
X127629587Y-55301793D01*
X127527727Y-55274500D01*
X127422273Y-55274500D01*
X127320413Y-55301793D01*
X127320410Y-55301794D01*
X127229085Y-55354521D01*
X127154521Y-55429085D01*
X127101794Y-55520410D01*
X127101793Y-55520413D01*
X127074500Y-55622273D01*
X126275500Y-55622273D01*
X126248207Y-55520413D01*
X126195480Y-55429087D01*
X126120913Y-55354520D01*
X126034430Y-55304589D01*
X126029589Y-55301794D01*
X126029588Y-55301793D01*
X126029587Y-55301793D01*
X125927727Y-55274500D01*
X125822273Y-55274500D01*
X125720413Y-55301793D01*
X125720410Y-55301794D01*
X125629085Y-55354521D01*
X125554521Y-55429085D01*
X125501794Y-55520410D01*
X125501793Y-55520413D01*
X125474500Y-55622273D01*
X124625500Y-55622273D01*
X124598207Y-55520413D01*
X124545480Y-55429087D01*
X124470913Y-55354520D01*
X124384430Y-55304589D01*
X124379589Y-55301794D01*
X124379588Y-55301793D01*
X124379587Y-55301793D01*
X124277727Y-55274500D01*
X124172273Y-55274500D01*
X124070413Y-55301793D01*
X124070410Y-55301794D01*
X123979085Y-55354521D01*
X123904521Y-55429085D01*
X123851794Y-55520410D01*
X123851793Y-55520413D01*
X123824500Y-55622273D01*
X106188666Y-55622273D01*
X106158413Y-55592020D01*
X106067087Y-55539293D01*
X105965227Y-55512000D01*
X105859773Y-55512000D01*
X105757913Y-55539293D01*
X105757910Y-55539294D01*
X105666585Y-55592021D01*
X105592021Y-55666585D01*
X105539294Y-55757910D01*
X105539293Y-55757913D01*
X105512000Y-55859773D01*
X98000500Y-55859773D01*
X98000500Y-55147273D01*
X110549500Y-55147273D01*
X110549500Y-55252727D01*
X110576793Y-55354587D01*
X110629520Y-55445913D01*
X110704087Y-55520480D01*
X110795413Y-55573207D01*
X110897273Y-55600500D01*
X110897275Y-55600500D01*
X111002725Y-55600500D01*
X111002727Y-55600500D01*
X111104587Y-55573207D01*
X111195913Y-55520480D01*
X111270480Y-55445913D01*
X111323207Y-55354587D01*
X111350500Y-55252727D01*
X111350500Y-55147273D01*
X111337103Y-55097273D01*
X113574500Y-55097273D01*
X113574500Y-55202727D01*
X113601793Y-55304587D01*
X113654520Y-55395913D01*
X113729087Y-55470480D01*
X113820413Y-55523207D01*
X113922273Y-55550500D01*
X113922275Y-55550500D01*
X114027725Y-55550500D01*
X114027727Y-55550500D01*
X114129587Y-55523207D01*
X114220913Y-55470480D01*
X114295480Y-55395913D01*
X114348207Y-55304587D01*
X114375500Y-55202727D01*
X114375500Y-55097273D01*
X114348207Y-54995413D01*
X114295480Y-54904087D01*
X114220913Y-54829520D01*
X114129587Y-54776793D01*
X114027727Y-54749500D01*
X113922273Y-54749500D01*
X113820413Y-54776793D01*
X113820410Y-54776794D01*
X113729085Y-54829521D01*
X113654521Y-54904085D01*
X113601794Y-54995410D01*
X113601793Y-54995413D01*
X113574500Y-55097273D01*
X111337103Y-55097273D01*
X111323207Y-55045413D01*
X111270480Y-54954087D01*
X111195913Y-54879520D01*
X111109312Y-54829521D01*
X111104589Y-54826794D01*
X111104588Y-54826793D01*
X111104587Y-54826793D01*
X111002727Y-54799500D01*
X110897273Y-54799500D01*
X110795413Y-54826793D01*
X110795410Y-54826794D01*
X110704085Y-54879521D01*
X110629521Y-54954085D01*
X110576794Y-55045410D01*
X110576793Y-55045413D01*
X110549500Y-55147273D01*
X98000500Y-55147273D01*
X98000500Y-54347273D01*
X118299500Y-54347273D01*
X118299500Y-54452727D01*
X118326793Y-54554587D01*
X118379520Y-54645913D01*
X118454087Y-54720480D01*
X118545413Y-54773207D01*
X118647273Y-54800500D01*
X118647275Y-54800500D01*
X118752725Y-54800500D01*
X118752727Y-54800500D01*
X118854587Y-54773207D01*
X118945913Y-54720480D01*
X119020480Y-54645913D01*
X119073207Y-54554587D01*
X119100500Y-54452727D01*
X119100500Y-54347273D01*
X119073207Y-54245413D01*
X119020480Y-54154087D01*
X118945913Y-54079520D01*
X118854587Y-54026793D01*
X118752727Y-53999500D01*
X118647273Y-53999500D01*
X118545413Y-54026793D01*
X118545410Y-54026794D01*
X118454085Y-54079521D01*
X118379521Y-54154085D01*
X118326794Y-54245410D01*
X118326793Y-54245413D01*
X118299500Y-54347273D01*
X98000500Y-54347273D01*
X98000500Y-53947273D01*
X151599500Y-53947273D01*
X151599500Y-54052727D01*
X151626793Y-54154587D01*
X151679520Y-54245913D01*
X151754087Y-54320480D01*
X151845413Y-54373207D01*
X151947273Y-54400500D01*
X151947275Y-54400500D01*
X152052725Y-54400500D01*
X152052727Y-54400500D01*
X152154587Y-54373207D01*
X152245913Y-54320480D01*
X152320480Y-54245913D01*
X152373207Y-54154587D01*
X152400500Y-54052727D01*
X152400500Y-53947273D01*
X152373207Y-53845413D01*
X152320480Y-53754087D01*
X152245913Y-53679520D01*
X152154587Y-53626793D01*
X152052727Y-53599500D01*
X151947273Y-53599500D01*
X151845413Y-53626793D01*
X151845410Y-53626794D01*
X151754085Y-53679521D01*
X151679521Y-53754085D01*
X151626794Y-53845410D01*
X151626793Y-53845413D01*
X151599500Y-53947273D01*
X98000500Y-53947273D01*
X98000500Y-51747273D01*
X106324500Y-51747273D01*
X106324500Y-51852727D01*
X106351793Y-51954587D01*
X106404520Y-52045913D01*
X106479087Y-52120480D01*
X106570413Y-52173207D01*
X106672273Y-52200500D01*
X106672275Y-52200500D01*
X106777725Y-52200500D01*
X106777727Y-52200500D01*
X106879587Y-52173207D01*
X106970913Y-52120480D01*
X107045480Y-52045913D01*
X107098207Y-51954587D01*
X107125500Y-51852727D01*
X107125500Y-51747273D01*
X107098207Y-51645413D01*
X107045480Y-51554087D01*
X107013666Y-51522273D01*
X141349500Y-51522273D01*
X141349500Y-51627727D01*
X141376793Y-51729587D01*
X141429520Y-51820913D01*
X141504087Y-51895480D01*
X141595413Y-51948207D01*
X141697273Y-51975500D01*
X141697275Y-51975500D01*
X141802725Y-51975500D01*
X141802727Y-51975500D01*
X141904587Y-51948207D01*
X141995913Y-51895480D01*
X142070480Y-51820913D01*
X142123207Y-51729587D01*
X142150500Y-51627727D01*
X142150500Y-51522273D01*
X142123207Y-51420413D01*
X142070480Y-51329087D01*
X141995913Y-51254520D01*
X141904587Y-51201793D01*
X141802727Y-51174500D01*
X141697273Y-51174500D01*
X141595413Y-51201793D01*
X141595410Y-51201794D01*
X141504085Y-51254521D01*
X141429521Y-51329085D01*
X141376794Y-51420410D01*
X141376793Y-51420413D01*
X141349500Y-51522273D01*
X107013666Y-51522273D01*
X106970913Y-51479520D01*
X106879587Y-51426793D01*
X106777727Y-51399500D01*
X106672273Y-51399500D01*
X106570413Y-51426793D01*
X106570410Y-51426794D01*
X106479085Y-51479521D01*
X106404521Y-51554085D01*
X106351794Y-51645410D01*
X106351793Y-51645413D01*
X106324500Y-51747273D01*
X98000500Y-51747273D01*
X98000500Y-48754044D01*
X121324500Y-48754044D01*
X121324500Y-48859498D01*
X121351793Y-48961358D01*
X121404520Y-49052684D01*
X121479087Y-49127251D01*
X121570413Y-49179978D01*
X121672273Y-49207271D01*
X121672275Y-49207271D01*
X121777725Y-49207271D01*
X121777727Y-49207271D01*
X121879587Y-49179978D01*
X121970913Y-49127251D01*
X122045480Y-49052684D01*
X122098207Y-48961358D01*
X122125500Y-48859498D01*
X122125500Y-48754044D01*
X122098207Y-48652184D01*
X122045480Y-48560858D01*
X121970913Y-48486291D01*
X121879587Y-48433564D01*
X121777727Y-48406271D01*
X121672273Y-48406271D01*
X121570413Y-48433564D01*
X121570410Y-48433565D01*
X121479085Y-48486292D01*
X121404521Y-48560856D01*
X121351794Y-48652181D01*
X121351793Y-48652184D01*
X121324500Y-48754044D01*
X98000500Y-48754044D01*
X98000500Y-47797276D01*
X106599500Y-47797276D01*
X106599500Y-47902730D01*
X106626793Y-48004590D01*
X106679520Y-48095916D01*
X106754087Y-48170483D01*
X106845413Y-48223210D01*
X106947273Y-48250503D01*
X106947275Y-48250503D01*
X107052725Y-48250503D01*
X107052727Y-48250503D01*
X107154587Y-48223210D01*
X107245913Y-48170483D01*
X107320480Y-48095916D01*
X107373207Y-48004590D01*
X107381866Y-47972273D01*
X133349500Y-47972273D01*
X133349500Y-48077727D01*
X133376793Y-48179587D01*
X133429520Y-48270913D01*
X133504087Y-48345480D01*
X133595413Y-48398207D01*
X133697273Y-48425500D01*
X133697275Y-48425500D01*
X133802725Y-48425500D01*
X133802727Y-48425500D01*
X133904587Y-48398207D01*
X133995913Y-48345480D01*
X134070480Y-48270913D01*
X134123207Y-48179587D01*
X134150500Y-48077727D01*
X134150500Y-47972273D01*
X134123207Y-47870413D01*
X134070480Y-47779087D01*
X133995913Y-47704520D01*
X133904587Y-47651793D01*
X133802727Y-47624500D01*
X133697273Y-47624500D01*
X133595413Y-47651793D01*
X133595410Y-47651794D01*
X133504085Y-47704521D01*
X133429521Y-47779085D01*
X133376794Y-47870410D01*
X133376793Y-47870413D01*
X133349500Y-47972273D01*
X107381866Y-47972273D01*
X107400500Y-47902730D01*
X107400500Y-47797276D01*
X107373207Y-47695416D01*
X107320480Y-47604090D01*
X107245913Y-47529523D01*
X107154587Y-47476796D01*
X107052727Y-47449503D01*
X106947273Y-47449503D01*
X106845413Y-47476796D01*
X106845410Y-47476797D01*
X106754085Y-47529524D01*
X106679521Y-47604088D01*
X106626794Y-47695413D01*
X106626793Y-47695416D01*
X106599500Y-47797276D01*
X98000500Y-47797276D01*
X98000500Y-47303051D01*
X98000649Y-47296967D01*
X98002444Y-47260438D01*
X98018015Y-46943465D01*
X98019208Y-46931359D01*
X98070691Y-46584287D01*
X98073061Y-46572367D01*
X98158322Y-46231986D01*
X98161852Y-46220353D01*
X98280054Y-45890003D01*
X98284710Y-45878762D01*
X98319835Y-45804495D01*
X98434735Y-45561557D01*
X98440454Y-45550857D01*
X98620851Y-45249884D01*
X98627594Y-45239791D01*
X98836630Y-44957939D01*
X98844333Y-44948554D01*
X99079983Y-44688553D01*
X99088553Y-44679983D01*
X99348554Y-44444333D01*
X99357939Y-44436630D01*
X99639791Y-44227594D01*
X99649884Y-44220851D01*
X99950857Y-44040454D01*
X99961557Y-44034735D01*
X100278762Y-43884710D01*
X100289999Y-43880055D01*
X100620361Y-43761849D01*
X100631986Y-43758322D01*
X100972367Y-43673061D01*
X100984278Y-43670692D01*
X101331359Y-43619207D01*
X101343465Y-43618015D01*
X101696967Y-43600648D01*
X101703051Y-43600500D01*
X101747595Y-43600500D01*
X153652405Y-43600500D01*
X153696949Y-43600500D01*
X153703032Y-43600648D01*
G37*
%TD.AperFunction*%
%TD*%
M02*
