%TF.GenerationSoftware,KiCad,Pcbnew,9.0.0*%
%TF.CreationDate,2025-03-31T19:39:25-04:00*%
%TF.ProjectId,nano405,6e616e6f-3430-4352-9e6b-696361645f70,A*%
%TF.SameCoordinates,Original*%
%TF.FileFunction,Paste,Top*%
%TF.FilePolarity,Positive*%
%FSLAX46Y46*%
G04 Gerber Fmt 4.6, Leading zero omitted, Abs format (unit mm)*
G04 Created by KiCad (PCBNEW 9.0.0) date 2025-03-31 19:39:25*
%MOMM*%
%LPD*%
G01*
G04 APERTURE LIST*
G04 Aperture macros list*
%AMRoundRect*
0 Rectangle with rounded corners*
0 $1 Rounding radius*
0 $2 $3 $4 $5 $6 $7 $8 $9 X,Y pos of 4 corners*
0 Add a 4 corners polygon primitive as box body*
4,1,4,$2,$3,$4,$5,$6,$7,$8,$9,$2,$3,0*
0 Add four circle primitives for the rounded corners*
1,1,$1+$1,$2,$3*
1,1,$1+$1,$4,$5*
1,1,$1+$1,$6,$7*
1,1,$1+$1,$8,$9*
0 Add four rect primitives between the rounded corners*
20,1,$1+$1,$2,$3,$4,$5,0*
20,1,$1+$1,$4,$5,$6,$7,0*
20,1,$1+$1,$6,$7,$8,$9,0*
20,1,$1+$1,$8,$9,$2,$3,0*%
G04 Aperture macros list end*
%ADD10RoundRect,0.250000X-0.250000X-0.475000X0.250000X-0.475000X0.250000X0.475000X-0.250000X0.475000X0*%
%ADD11RoundRect,0.200000X0.200000X0.275000X-0.200000X0.275000X-0.200000X-0.275000X0.200000X-0.275000X0*%
%ADD12RoundRect,0.140000X0.170000X-0.140000X0.170000X0.140000X-0.170000X0.140000X-0.170000X-0.140000X0*%
%ADD13RoundRect,0.200000X-0.275000X0.200000X-0.275000X-0.200000X0.275000X-0.200000X0.275000X0.200000X0*%
%ADD14RoundRect,0.125000X0.125000X0.125000X-0.125000X0.125000X-0.125000X-0.125000X0.125000X-0.125000X0*%
%ADD15RoundRect,0.200000X-0.200000X-0.275000X0.200000X-0.275000X0.200000X0.275000X-0.200000X0.275000X0*%
%ADD16RoundRect,0.100000X0.100000X0.100000X-0.100000X0.100000X-0.100000X-0.100000X0.100000X-0.100000X0*%
%ADD17RoundRect,0.200000X0.275000X-0.200000X0.275000X0.200000X-0.275000X0.200000X-0.275000X-0.200000X0*%
%ADD18RoundRect,0.140000X0.140000X0.170000X-0.140000X0.170000X-0.140000X-0.170000X0.140000X-0.170000X0*%
%ADD19RoundRect,0.250000X-0.475000X0.250000X-0.475000X-0.250000X0.475000X-0.250000X0.475000X0.250000X0*%
%ADD20R,1.550000X1.000000*%
%ADD21RoundRect,0.140000X-0.140000X-0.170000X0.140000X-0.170000X0.140000X0.170000X-0.140000X0.170000X0*%
%ADD22RoundRect,0.140000X-0.170000X0.140000X-0.170000X-0.140000X0.170000X-0.140000X0.170000X0.140000X0*%
%ADD23RoundRect,0.093750X0.093750X-0.156250X0.093750X0.156250X-0.093750X0.156250X-0.093750X-0.156250X0*%
%ADD24RoundRect,0.075000X0.075000X-0.250000X0.075000X0.250000X-0.075000X0.250000X-0.075000X-0.250000X0*%
%ADD25RoundRect,0.250000X0.250000X0.475000X-0.250000X0.475000X-0.250000X-0.475000X0.250000X-0.475000X0*%
%ADD26RoundRect,0.150000X-0.150000X-0.350000X0.150000X-0.350000X0.150000X0.350000X-0.150000X0.350000X0*%
%ADD27RoundRect,0.075000X-0.075000X-0.500000X0.075000X-0.500000X0.075000X0.500000X-0.075000X0.500000X0*%
%ADD28O,1.000000X2.100000*%
%ADD29O,1.000000X1.800000*%
%ADD30RoundRect,0.250000X-0.450000X0.262500X-0.450000X-0.262500X0.450000X-0.262500X0.450000X0.262500X0*%
%ADD31RoundRect,0.125000X-0.125000X-0.125000X0.125000X-0.125000X0.125000X0.125000X-0.125000X0.125000X0*%
%ADD32R,1.000000X1.550000*%
%ADD33RoundRect,0.250000X0.262500X0.450000X-0.262500X0.450000X-0.262500X-0.450000X0.262500X-0.450000X0*%
%ADD34R,0.980000X3.400000*%
%ADD35R,1.200000X0.700000*%
%ADD36R,0.800000X1.000000*%
%ADD37R,1.200000X1.000000*%
%ADD38R,2.800000X1.000000*%
%ADD39R,1.900000X1.300000*%
%ADD40RoundRect,0.250000X0.475000X-0.250000X0.475000X0.250000X-0.475000X0.250000X-0.475000X-0.250000X0*%
%ADD41R,0.550000X1.600000*%
%ADD42RoundRect,0.250000X0.295000X0.295000X-0.295000X0.295000X-0.295000X-0.295000X0.295000X-0.295000X0*%
%ADD43RoundRect,0.062500X0.350000X0.062500X-0.350000X0.062500X-0.350000X-0.062500X0.350000X-0.062500X0*%
%ADD44RoundRect,0.062500X0.062500X0.350000X-0.062500X0.350000X-0.062500X-0.350000X0.062500X-0.350000X0*%
%ADD45R,1.150000X1.400000*%
%ADD46RoundRect,0.225000X-0.225000X-0.250000X0.225000X-0.250000X0.225000X0.250000X-0.225000X0.250000X0*%
%ADD47R,0.330200X1.308100*%
%ADD48R,1.752600X1.447800*%
%ADD49RoundRect,0.075000X0.700000X0.075000X-0.700000X0.075000X-0.700000X-0.075000X0.700000X-0.075000X0*%
%ADD50RoundRect,0.075000X0.075000X0.700000X-0.075000X0.700000X-0.075000X-0.700000X0.075000X-0.700000X0*%
%ADD51RoundRect,0.125000X0.125000X-0.125000X0.125000X0.125000X-0.125000X0.125000X-0.125000X-0.125000X0*%
%ADD52RoundRect,0.147500X-0.147500X-0.172500X0.147500X-0.172500X0.147500X0.172500X-0.147500X0.172500X0*%
G04 APERTURE END LIST*
D10*
%TO.C,C42*%
X134700000Y-87225000D03*
X136600000Y-87225000D03*
%TD*%
%TO.C,C51*%
X120750000Y-84325000D03*
X122650000Y-84325000D03*
%TD*%
D11*
%TO.C,R3*%
X132250000Y-52025000D03*
X130600000Y-52025000D03*
%TD*%
D12*
%TO.C,C37*%
X134800000Y-48000000D03*
X134800000Y-47040000D03*
%TD*%
D13*
%TO.C,R47*%
X118650000Y-77950000D03*
X118650000Y-79600000D03*
%TD*%
D11*
%TO.C,R6*%
X146295000Y-51600000D03*
X144645000Y-51600000D03*
%TD*%
D14*
%TO.C,D5*%
X149870000Y-59450000D03*
X147670000Y-59450000D03*
%TD*%
D15*
%TO.C,R8*%
X147820000Y-61250000D03*
X149470000Y-61250000D03*
%TD*%
D16*
%TO.C,D1*%
X134350000Y-52550000D03*
X133550000Y-52550000D03*
X133550000Y-51750000D03*
X134350000Y-51750000D03*
%TD*%
D11*
%TO.C,R39*%
X130980000Y-72600000D03*
X129330000Y-72600000D03*
%TD*%
D17*
%TO.C,R24*%
X119400000Y-47775000D03*
X119400000Y-46125000D03*
%TD*%
D13*
%TO.C,R32*%
X136000000Y-46250000D03*
X136000000Y-47900000D03*
%TD*%
D11*
%TO.C,R29*%
X154800000Y-55800000D03*
X153150000Y-55800000D03*
%TD*%
D18*
%TO.C,C16*%
X138950000Y-81950000D03*
X137990000Y-81950000D03*
%TD*%
D13*
%TO.C,R4*%
X127125000Y-72525000D03*
X127125000Y-74175000D03*
%TD*%
D19*
%TO.C,C18*%
X136150000Y-76360000D03*
X136150000Y-78260000D03*
%TD*%
D20*
%TO.C,SW1*%
X112075000Y-44475000D03*
X117325000Y-44475000D03*
X112075000Y-46175000D03*
X117325000Y-46175000D03*
%TD*%
D12*
%TO.C,C39*%
X121725000Y-47655000D03*
X121725000Y-46695000D03*
%TD*%
D17*
%TO.C,R44*%
X131100000Y-80725000D03*
X131100000Y-79075000D03*
%TD*%
D13*
%TO.C,R1*%
X134100000Y-53875000D03*
X134100000Y-55525000D03*
%TD*%
D18*
%TO.C,C4*%
X120250000Y-68125000D03*
X119290000Y-68125000D03*
%TD*%
D11*
%TO.C,R25*%
X102250000Y-55600000D03*
X100600000Y-55600000D03*
%TD*%
D13*
%TO.C,R35*%
X123000000Y-46125000D03*
X123000000Y-47775000D03*
%TD*%
D19*
%TO.C,C8*%
X134950000Y-60775000D03*
X134950000Y-62675000D03*
%TD*%
D21*
%TO.C,C36*%
X153170000Y-54550000D03*
X154130000Y-54550000D03*
%TD*%
D22*
%TO.C,C7*%
X133500000Y-60920000D03*
X133500000Y-61880000D03*
%TD*%
D17*
%TO.C,R34*%
X132350000Y-47775000D03*
X132350000Y-46125000D03*
%TD*%
D23*
%TO.C,U4*%
X134162500Y-93475000D03*
D24*
X134700000Y-93550000D03*
D23*
X135237500Y-93475000D03*
X135237500Y-91775000D03*
D24*
X134700000Y-91700000D03*
D23*
X134162500Y-91775000D03*
%TD*%
D25*
%TO.C,C1*%
X133530000Y-69620000D03*
X131630000Y-69620000D03*
%TD*%
D12*
%TO.C,C34*%
X108500000Y-47785000D03*
X108500000Y-46825000D03*
%TD*%
D26*
%TO.C,J4*%
X131000000Y-95920000D03*
X131800000Y-95920000D03*
D27*
X132950000Y-95995000D03*
X133950000Y-95995000D03*
X134450000Y-95995000D03*
X135450000Y-95995000D03*
D26*
X136600000Y-95920000D03*
X137400000Y-95920000D03*
X137400000Y-95920000D03*
X136600000Y-95920000D03*
D27*
X135950000Y-95995000D03*
X134950000Y-95995000D03*
X133450000Y-95995000D03*
X132450000Y-95995000D03*
D26*
X131800000Y-95920000D03*
X131000000Y-95920000D03*
D28*
X129880000Y-96570000D03*
D29*
X129880000Y-100750000D03*
D28*
X138520000Y-96570000D03*
D29*
X138520000Y-100750000D03*
%TD*%
D22*
%TO.C,C13*%
X143070000Y-51600000D03*
X143070000Y-52560000D03*
%TD*%
D25*
%TO.C,C17*%
X138750000Y-80300000D03*
X136850000Y-80300000D03*
%TD*%
D22*
%TO.C,C11*%
X139550000Y-66320000D03*
X139550000Y-67280000D03*
%TD*%
D18*
%TO.C,C9*%
X136775000Y-57300000D03*
X135815000Y-57300000D03*
%TD*%
D22*
%TO.C,C10*%
X135625000Y-51745000D03*
X135625000Y-52705000D03*
%TD*%
D19*
%TO.C,C43*%
X127175000Y-85950000D03*
X127175000Y-87850000D03*
%TD*%
D30*
%TO.C,FB2*%
X138550000Y-76375000D03*
X138550000Y-78200000D03*
%TD*%
D21*
%TO.C,C3*%
X128640000Y-55900000D03*
X129600000Y-55900000D03*
%TD*%
D17*
%TO.C,R11*%
X147925000Y-72800000D03*
X147925000Y-71150000D03*
%TD*%
D13*
%TO.C,R41*%
X134350000Y-77925000D03*
X134350000Y-79575000D03*
%TD*%
D17*
%TO.C,R13*%
X143250000Y-72800000D03*
X143250000Y-71150000D03*
%TD*%
D11*
%TO.C,R7*%
X146220000Y-61250000D03*
X144570000Y-61250000D03*
%TD*%
D14*
%TO.C,D2*%
X149870000Y-53400000D03*
X147670000Y-53400000D03*
%TD*%
D31*
%TO.C,D7*%
X136750000Y-83525000D03*
X138950000Y-83525000D03*
%TD*%
D17*
%TO.C,R37*%
X128100000Y-98100000D03*
X128100000Y-96450000D03*
%TD*%
%TO.C,R30*%
X145400000Y-47800000D03*
X145400000Y-46150000D03*
%TD*%
D13*
%TO.C,R27*%
X109750000Y-46125000D03*
X109750000Y-47775000D03*
%TD*%
D32*
%TO.C,SW5*%
X98875000Y-74850000D03*
X98875000Y-69600000D03*
X100575000Y-74850000D03*
X100575000Y-69600000D03*
%TD*%
D17*
%TO.C,R36*%
X140300000Y-98100000D03*
X140300000Y-96450000D03*
%TD*%
D32*
%TO.C,SW2*%
X98875000Y-63100000D03*
X98875000Y-57850000D03*
X100575000Y-63100000D03*
X100575000Y-57850000D03*
%TD*%
D17*
%TO.C,R40*%
X129400000Y-75700000D03*
X129400000Y-74050000D03*
%TD*%
%TO.C,R12*%
X144825000Y-72800000D03*
X144825000Y-71150000D03*
%TD*%
D33*
%TO.C,FB1*%
X136775000Y-58950000D03*
X134950000Y-58950000D03*
%TD*%
D31*
%TO.C,D4*%
X144170000Y-59450000D03*
X146370000Y-59450000D03*
%TD*%
D34*
%TO.C,L1*%
X126950000Y-91100000D03*
X124580000Y-91100000D03*
%TD*%
D19*
%TO.C,C52*%
X124350000Y-77725000D03*
X124350000Y-79625000D03*
%TD*%
D11*
%TO.C,R31*%
X102250000Y-67600000D03*
X100600000Y-67600000D03*
%TD*%
D17*
%TO.C,R38*%
X135150000Y-69200000D03*
X135150000Y-67550000D03*
%TD*%
D13*
%TO.C,R14*%
X141675000Y-71150000D03*
X141675000Y-72800000D03*
%TD*%
D12*
%TO.C,C38*%
X102600000Y-75675000D03*
X102600000Y-74715000D03*
%TD*%
D35*
%TO.C,J2*%
X141350000Y-80300000D03*
X141350000Y-81400000D03*
X141350000Y-82500000D03*
X141350000Y-83600000D03*
X141350000Y-84700000D03*
X141350000Y-85800000D03*
X141350000Y-86900000D03*
X141350000Y-88000000D03*
X141350000Y-88950000D03*
D36*
X151850000Y-89900000D03*
D37*
X145650000Y-89900000D03*
D38*
X156000000Y-89900000D03*
D37*
X141350000Y-78750000D03*
D39*
X156450000Y-76400000D03*
%TD*%
D13*
%TO.C,R43*%
X128100000Y-79075000D03*
X128100000Y-80725000D03*
%TD*%
D40*
%TO.C,C46*%
X131350000Y-94000000D03*
X131350000Y-92100000D03*
%TD*%
D41*
%TO.C,L2*%
X120950000Y-75850000D03*
X122400000Y-75850000D03*
%TD*%
D18*
%TO.C,C6*%
X130400000Y-70500000D03*
X129440000Y-70500000D03*
%TD*%
D21*
%TO.C,C41*%
X134695000Y-88750000D03*
X135655000Y-88750000D03*
%TD*%
D42*
%TO.C,U3*%
X131762500Y-85975000D03*
X131762500Y-84625000D03*
X130412500Y-85975000D03*
X130412500Y-84625000D03*
D43*
X133050000Y-86550000D03*
X133050000Y-86050000D03*
X133050000Y-85550000D03*
X133050000Y-85050000D03*
X133050000Y-84550000D03*
X133050000Y-84050000D03*
D44*
X132337500Y-83337500D03*
X131837500Y-83337500D03*
X131337500Y-83337500D03*
X130837500Y-83337500D03*
X130337500Y-83337500D03*
X129837500Y-83337500D03*
D43*
X129125000Y-84050000D03*
X129125000Y-84550000D03*
X129125000Y-85050000D03*
X129125000Y-85550000D03*
X129125000Y-86050000D03*
X129125000Y-86550000D03*
D44*
X129837500Y-87262500D03*
X130337500Y-87262500D03*
X130837500Y-87262500D03*
X131337500Y-87262500D03*
X131837500Y-87262500D03*
X132337500Y-87262500D03*
%TD*%
D17*
%TO.C,R10*%
X149875000Y-72800000D03*
X149875000Y-71150000D03*
%TD*%
D45*
%TO.C,Y1*%
X142555000Y-67430000D03*
X142555000Y-65230000D03*
X140955000Y-65230000D03*
X140955000Y-67430000D03*
%TD*%
D25*
%TO.C,C14*%
X122850000Y-53700000D03*
X120950000Y-53700000D03*
%TD*%
D20*
%TO.C,SW6*%
X125075000Y-44475000D03*
X130325000Y-44475000D03*
X125075000Y-46175000D03*
X130325000Y-46175000D03*
%TD*%
D46*
%TO.C,C45*%
X128950000Y-89425000D03*
X130500000Y-89425000D03*
%TD*%
D18*
%TO.C,C5*%
X132800000Y-68000000D03*
X131840000Y-68000000D03*
%TD*%
D32*
%TO.C,SW3*%
X156500000Y-57850000D03*
X156500000Y-63100000D03*
X154800000Y-57850000D03*
X154800000Y-63100000D03*
%TD*%
D13*
%TO.C,R2*%
X132350000Y-53850000D03*
X132350000Y-55500000D03*
%TD*%
D19*
%TO.C,C48*%
X129300000Y-92100000D03*
X129300000Y-94000000D03*
%TD*%
D13*
%TO.C,R42*%
X132825000Y-77925000D03*
X132825000Y-79575000D03*
%TD*%
D15*
%TO.C,R5*%
X137750000Y-64980000D03*
X139400000Y-64980000D03*
%TD*%
D13*
%TO.C,R46*%
X126225000Y-78100000D03*
X126225000Y-79750000D03*
%TD*%
D15*
%TO.C,R28*%
X103000000Y-65125000D03*
X104650000Y-65125000D03*
%TD*%
D17*
%TO.C,R45*%
X129600000Y-80725000D03*
X129600000Y-79075000D03*
%TD*%
D31*
%TO.C,D3*%
X144170000Y-53400000D03*
X146370000Y-53400000D03*
%TD*%
D47*
%TO.C,U6*%
X122324999Y-77900000D03*
X121675001Y-77900000D03*
X121024999Y-77900000D03*
X120375001Y-77900000D03*
X120375001Y-82306900D03*
X121024999Y-82306900D03*
X121675001Y-82306900D03*
X122324999Y-82306900D03*
D48*
X121350000Y-80103450D03*
%TD*%
D12*
%TO.C,C2*%
X122200000Y-56160000D03*
X122200000Y-55200000D03*
%TD*%
D49*
%TO.C,U1*%
X131800000Y-67050000D03*
X131800000Y-66550000D03*
X131800000Y-66050000D03*
X131800000Y-65550000D03*
X131800000Y-65050000D03*
X131800000Y-64550000D03*
X131800000Y-64050000D03*
X131800000Y-63550000D03*
X131800000Y-63050000D03*
X131800000Y-62550000D03*
X131800000Y-62050000D03*
X131800000Y-61550000D03*
X131800000Y-61050000D03*
X131800000Y-60550000D03*
X131800000Y-60050000D03*
X131800000Y-59550000D03*
D50*
X129875000Y-57625000D03*
X129375000Y-57625000D03*
X128875000Y-57625000D03*
X128375000Y-57625000D03*
X127875000Y-57625000D03*
X127375000Y-57625000D03*
X126875000Y-57625000D03*
X126375000Y-57625000D03*
X125875000Y-57625000D03*
X125375000Y-57625000D03*
X124875000Y-57625000D03*
X124375000Y-57625000D03*
X123875000Y-57625000D03*
X123375000Y-57625000D03*
X122875000Y-57625000D03*
X122375000Y-57625000D03*
D49*
X120450000Y-59550000D03*
X120450000Y-60050000D03*
X120450000Y-60550000D03*
X120450000Y-61050000D03*
X120450000Y-61550000D03*
X120450000Y-62050000D03*
X120450000Y-62550000D03*
X120450000Y-63050000D03*
X120450000Y-63550000D03*
X120450000Y-64050000D03*
X120450000Y-64550000D03*
X120450000Y-65050000D03*
X120450000Y-65550000D03*
X120450000Y-66050000D03*
X120450000Y-66550000D03*
X120450000Y-67050000D03*
D50*
X122375000Y-68975000D03*
X122875000Y-68975000D03*
X123375000Y-68975000D03*
X123875000Y-68975000D03*
X124375000Y-68975000D03*
X124875000Y-68975000D03*
X125375000Y-68975000D03*
X125875000Y-68975000D03*
X126375000Y-68975000D03*
X126875000Y-68975000D03*
X127375000Y-68975000D03*
X127875000Y-68975000D03*
X128375000Y-68975000D03*
X128875000Y-68975000D03*
X129375000Y-68975000D03*
X129875000Y-68975000D03*
%TD*%
D12*
%TO.C,C35*%
X105850000Y-65125000D03*
X105850000Y-64165000D03*
%TD*%
D15*
%TO.C,R26*%
X152225000Y-65150000D03*
X153875000Y-65150000D03*
%TD*%
%TO.C,R16*%
X151900000Y-74150000D03*
X153550000Y-74150000D03*
%TD*%
D40*
%TO.C,C47*%
X127175000Y-84200000D03*
X127175000Y-82300000D03*
%TD*%
D19*
%TO.C,C15*%
X117525000Y-66600000D03*
X117525000Y-68500000D03*
%TD*%
D51*
%TO.C,D6*%
X141820000Y-58700000D03*
X141820000Y-56500000D03*
%TD*%
D20*
%TO.C,SW4*%
X138075000Y-44475000D03*
X143325000Y-44475000D03*
X138075000Y-46175000D03*
X143325000Y-46175000D03*
%TD*%
D21*
%TO.C,C40*%
X136600000Y-93425000D03*
X137560000Y-93425000D03*
%TD*%
D15*
%TO.C,R33*%
X100575000Y-76975000D03*
X102225000Y-76975000D03*
%TD*%
D21*
%TO.C,C12*%
X140650000Y-63730000D03*
X141610000Y-63730000D03*
%TD*%
D13*
%TO.C,R9*%
X140070000Y-56650000D03*
X140070000Y-58300000D03*
%TD*%
D19*
%TO.C,C44*%
X125125000Y-85950000D03*
X125125000Y-87850000D03*
%TD*%
D17*
%TO.C,R15*%
X146350000Y-70300000D03*
X146350000Y-71950000D03*
%TD*%
D52*
%TO.C,D8*%
X120015000Y-72250000D03*
X120985000Y-72250000D03*
%TD*%
D13*
%TO.C,R48*%
X118650000Y-75350000D03*
X118650000Y-73700000D03*
%TD*%
M02*
